<?xml version="1.0" encoding="utf-8"?>
<!-- Generator: Adobe Illustrator 23.0.1, SVG Export Plug-In . SVG Version: 6.00 Build 0)  -->
<svg version="1.1" id="Layer_1" xmlns="http://www.w3.org/2000/svg" xmlns:xlink="http://www.w3.org/1999/xlink" x="0px" y="0px"
	 viewBox="0 0 84.5 92" style="enable-background:new 0 0 84.5 92;" xml:space="preserve">
<style type="text/css">
	.st0{fill:#FFFFFF;}
	.st1{fill:#3BDBB1;}
	.st2{fill:none;stroke:#3BDBB1;stroke-miterlimit:10;}
	.st3{fill:#F6BE00;}
</style>
<title>app-icon--records</title>
<g id="Layer_4">
	<path class="st0" d="M28.5,17.5h25.1c6.1,0,11.1,5,11.1,11.1V67c0,6.1-5,11.1-11.1,11.1H28.5c-6.1,0-11.1-5-11.1-11.1V28.6
		C17.4,22.4,22.4,17.5,28.5,17.5z"/>
	<path class="st1" d="M53.6,18c5.9,0,10.6,4.8,10.6,10.6V67c0,5.9-4.8,10.6-10.6,10.6l0,0H28.5c-5.9,0-10.6-4.8-10.6-10.6l0,0V28.6
		c0-5.9,4.8-10.6,10.6-10.6H53.6 M53.6,17H28.5c-6.4,0-11.6,5.2-11.6,11.6V67c0,6.4,5.2,11.6,11.6,11.6h25.1
		c6.4,0,11.6-5.2,11.6-11.6V28.6C65.1,22.2,60,17,53.6,17z"/>
	<path class="st0" d="M38.9,14.6h5.1c4,0,7.2,3.2,7.2,7.2v1c0,4-3.2,7.2-7.2,7.2h-5.1c-4,0-7.2-3.2-7.2-7.2v-1
		C31.6,17.8,34.9,14.6,38.9,14.6z"/>
	<path class="st1" d="M43.9,15.1c3.7,0,6.8,3,6.8,6.8v1c0,3.7-3,6.8-6.8,6.8h-5.1c-3.7,0-6.8-3-6.8-6.8v-1c0-3.7,3-6.8,6.8-6.8H43.9
		 M43.9,14.1h-5.1c-4.3,0-7.7,3.5-7.7,7.7v1c0,4.3,3.5,7.7,7.7,7.7h5.1c4.3,0,7.7-3.5,7.7-7.7v-1C51.6,17.6,48.2,14.1,43.9,14.1z"/>
	<circle class="st0" cx="41" cy="13.1" r="2.4"/>
	<path class="st1" d="M41,11.2c1.1,0,1.9,0.9,1.9,1.9s-0.9,1.9-1.9,1.9s-1.9-0.9-1.9-1.9S40,11.2,41,11.2 M41,10.2
		c-1.6,0-2.9,1.3-2.9,2.9S39.4,16,41,16s2.9-1.3,2.9-2.9S42.6,10.2,41,10.2z"/>
	<line class="st2" x1="25.6" y1="36.8" x2="56.9" y2="36.8"/>
	<line class="st2" x1="25.6" y1="44.5" x2="56.9" y2="44.5"/>
	<line class="st2" x1="25.6" y1="53.2" x2="56.9" y2="53.2"/>
	<line class="st2" x1="25.6" y1="68.6" x2="56.9" y2="68.6"/>
	<line class="st2" x1="30.4" y1="60.9" x2="38.6" y2="60.9"/>
	<line class="st2" x1="41" y1="60.9" x2="49.2" y2="60.9"/>
</g>
<g id="Layer_5">
	<path class="st0" d="M53.5,62.3c-0.8,0-1.5-0.3-2-0.8c-1.1-1.1-1.1-3,0-4.1c0,0,0,0,0,0l22.6-22.6c1.1-1.1,3-1.1,4.1,0
		c1.1,1.1,1.1,3,0,4.1L55.5,61.5C55,62,54.2,62.3,53.5,62.3z"/>
	<path class="st1" d="M76.1,34.4c1.3,0,2.4,1.1,2.4,2.4c0,0.6-0.3,1.2-0.7,1.7L55.2,61.2c-0.9,0.9-2.5,1-3.4,0c-0.9-0.9-1-2.5,0-3.4
		l0,0l22.6-22.6C74.8,34.7,75.4,34.4,76.1,34.4 M76.1,33.4c-0.9,0-1.8,0.3-2.4,1L51.1,57.1c-1.3,1.3-1.3,3.4,0,4.8c0,0,0,0,0,0l0,0
		c1.3,1.3,3.5,1.3,4.8,0l22.6-22.6c1.3-1.3,1.3-3.5,0-4.8c0,0,0,0,0,0l0,0C77.8,33.8,77,33.4,76.1,33.4L76.1,33.4z"/>
	<polygon class="st0" points="48.2,59.8 53.4,65.7 45.7,67.2 	"/>
	<path class="st1" d="M48.4,60.8l4.1,4.6l-6.1,1.2L48.4,60.8 M48,58.8l-3.1,9l9.3-1.9L48,58.8L48,58.8z"/>
</g>
<g id="Layer_3">
	<path class="st3" d="M80.3,4.5v82.9H4.5V4.5H80.3 M83.2,1.6H1.6v88.7h81.5V1.6z"/>
</g>
</svg>
