<svg xmlns="http://www.w3.org/2000/svg" width="48" height="48" viewBox="0 0 48 48">
  <g fill="none" fill-rule="evenodd" transform="translate(0 3)">
    <path stroke="#0084B3" stroke-width="2" d="M27.5526,27.8378 C26.6284,27.1912 26.0224,26.5938 25.8652,26.078 L25.8652,24.0106 C27.2012,22.612 28.255,20.6614 28.8786,18.3776 C30.378,17.3002 30.7488,15.0806 29.5092,13.5202 L29.5092,8.8922 C29.5092,4.1146 26.9094,0.8442 20.9658,0.8442 C15.1756,0.8442 12.4194,4.1146 12.4194,8.8922 L12.4194,13.522 C11.182,15.081 11.554,17.2988 13.0504,18.3768 C13.674,20.6614 14.7286,22.612 16.0654,24.0106 L16.0654,26.078 C15.4662,28.0464 8.3148,31.2096 1.8742,33.7582 C1.3252,33.9762 0.962,34.5226 0.962,35.1334 L0.962,37.3114" stroke-linecap="round" stroke-linejoin="round"/>
    <circle cx="38.1" cy="35.002" r="8.575" stroke="#8800B3" stroke-width="2" stroke-linecap="round" stroke-linejoin="round"/>
    <path fill="#8800B3" fill-rule="nonzero" d="M39,38 L39,31 C39,30.4477153 39.4477153,30 40,30 C40.5522847,30 41,30.4477153 41,31 L41,39 C41,39.5522847 40.5522847,40 40,40 L36.00354,40 C35.4512553,40 35.00354,39.5522847 35.00354,39 C35.00354,38.4477153 35.4512553,38 36.00354,38 L39,38 Z" transform="rotate(35 38.002 35)"/>
  </g>
</svg>
