<?xml version="1.0" encoding="utf-8"?>
<!-- Generator: Adobe Illustrator 23.0.1, SVG Export Plug-In . SVG Version: 6.00 Build 0)  -->
<svg version="1.1" id="Layer_1" xmlns="http://www.w3.org/2000/svg" xmlns:xlink="http://www.w3.org/1999/xlink" x="0px" y="0px"
	 viewBox="0 0 4935.9 4821.9" style="enable-background:new 0 0 4935.9 4821.9;" xml:space="preserve">
<style type="text/css">
	.st0{fill:none;stroke:#00B388;stroke-width:31.88;}
	.st1{fill:none;stroke:#F6BE00;stroke-width:44;}
	.st2{fill:none;stroke:#C8102E;stroke-width:50;}
	.st3{fill-rule:evenodd;clip-rule:evenodd;fill:#F6BE00;}
	.st4{fill-rule:evenodd;clip-rule:evenodd;fill:#C8102E;}
	.st5{fill:#C8102E;}
</style>
<path class="st0" d="M1964,2823.7l766.9,354.4l-418.1,906l-766.9-354.4L1964,2823.7z"/>
<path class="st0" d="M2444.1,1710.9l776.4,333l-392.8,917.3l-776.4-333L2444.1,1710.9z"/>
<path class="st0" d="M1494.1,1324.1l784.2,314l-370.3,926.6l-784.2-314L1494.1,1324.1z"/>
<path class="st0" d="M1028.3,2401l778.3,328.5L1419,3649.1l-778.3-328.5L1028.3,2401z"/>
<path class="st1" d="M404.7,3636.8l26.1-60.8l1820.4,778.3l-26.1,60.9L404.7,3636.8z"/>
<circle class="st2" cx="2864.1" cy="4363" r="421.7"/>
<path class="st3" d="M3998.6,198.2l76.3,28.8l-1258.1,3595l-76.3-28.8L3998.6,198.2z"/>
<path class="st4" d="M4007.1,288.2l-29.7-86.5l591.8-203l29.7,86.5L4007.1,288.2z"/>
<ellipse class="st5" cx="4014.8" cy="261.2" rx="61.4" ry="67.1"/>
</svg>
