<svg xmlns="http://www.w3.org/2000/svg" width="48" height="48" viewBox="0 0 48 48">
  <g fill="none" fill-rule="evenodd" transform="translate(7 1)" stroke-linecap="round" stroke-linejoin="round">
    <polyline stroke="#F6BE00" stroke-width="2" points="26 0 26 8 34 8"/>
    <path stroke="#F6BE00" stroke-width="2" d="M34,44 C34,45.2734 33.2919958,46 32,46 L2,46 C0.701204125,46 0,45.2734 0,44 L0,2 C0,0.7384 0.701204125,3.55271368e-15 2,3.55271368e-15 L26,3.55271368e-15 C26.4151554,3.55271368e-15 26.6081565,0.1788 27,3.55271368e-15 L34,7 C33.828799,7.3038 34,7.5772 34,8 L34,44 L34,44 Z"/>
    <path stroke="#00B388" d="M8.5 37.5L25.5 37.5M26 28.5C22.6917797 27.3379035 19.4749775 25.7926202 19 24.5L19 23.5C19.8057197 23.1361923 20.2797769 22.1830628 21 21.5 21.2290888 20.5454697 21.4053383 19.4611311 21 18.5L21 16.5C20.8442542 14.0980893 19.6745806 12.5 17 12.5 14.3950809 12.5 13.1549474 14.0980893 13 16.5L13 18.5C12.6004502 19.4530691 12.7613302 20.5370046 13 21.5 13.7194247 22.1830628 14.1938811 23.1361923 15 23.5L15 24.5C14.5256213 25.7916125 11.3080207 27.3372988 8 28.5 8.16347487 28.6890941 8 28.9559462 8 29.5L8 31.5C8 32.1775201 8.28543231 32.5 9 32.5L25 32.5C25.7145677 32.5 26 32.1775201 26 31.5L26 29.5C26 28.9559462 25.8365251 28.6882879 26 28.5L26 28.5z"/>
  </g>
</svg>
