<svg xmlns="http://www.w3.org/2000/svg" width="48" height="48" viewBox="0 0 48 48">
  <g fill="none" fill-rule="evenodd" transform="translate(1 6)">
    <path stroke="#F6BE00" d="M41 5L25 19C23.9493996 20.2686866 22.0508004 20.2686866 21 19L5 5M15.4890409 20.6367103L4.98283871 29.4433894" stroke-linecap="round"/>
    <path stroke="#F6BE00" stroke-width="2" d="M43,34 C44.8055948,33.1158 46,31.4198 46,29 L46,5 C46,2.053 43.934991,0 41,0 L5,0 C2.05000891,0 7.10542736e-15,2.0532 7.10542736e-15,5 L7.10542736e-15,29 C7.10542736e-15,31.9526 2.05000891,34 5,34 L18,34" stroke-linecap="round"/>
    <path fill="#C8102E" d="M34.992,36.792 C34.4479973,36.792 33.9620021,36.6640013 33.534,36.408 C33.1059979,36.1519987 32.8080008,35.7400028 32.64,35.172 C32.1679976,35.7480029 31.6680026,36.1599988 31.14,36.408 C30.6119974,36.6560012 30.044003,36.78 29.436,36.78 C28.9319975,36.78 28.4940019,36.6920009 28.122,36.516 C27.7499981,36.3399991 27.4380013,36.0980015 27.186,35.79 C26.9339987,35.4819985 26.7460006,35.1180021 26.622,34.698 C26.4979994,34.2779979 26.436,33.8200025 26.436,33.324 C26.436,32.8679977 26.4939994,32.4060023 26.61,31.938 C26.7260006,31.4699977 26.8999988,31.0180022 27.132,30.582 C27.3640012,30.1459978 27.6539983,29.7380019 28.002,29.358 C28.3500017,28.9779981 28.7599976,28.6460014 29.232,28.362 C29.7040024,28.0779986 30.2319971,27.8540008 30.816,27.69 C31.4000029,27.5259992 32.0479964,27.444 32.76,27.444 C33.3760031,27.444 33.9039978,27.4919995 34.344,27.588 C34.7840022,27.6840005 35.207998,27.8199991 35.616,27.996 L34.464,32.448 C34.3359994,32.9600026 34.272,33.3879983 34.272,33.732 C34.272,33.9720012 34.3019997,34.1719992 34.362,34.332 C34.4220003,34.4920008 34.5019995,34.6199995 34.602,34.716 C34.7020005,34.8120005 34.8239993,34.8779998 34.968,34.914 C35.1120007,34.9500002 35.2679992,34.968 35.436,34.968 C35.7720017,34.968 36.0899985,34.8620011 36.39,34.65 C36.6900015,34.4379989 36.9519989,34.1400019 37.176,33.756 C37.4000011,33.3719981 37.5779993,32.9160026 37.71,32.388 C37.8420007,31.8599974 37.908,31.2840031 37.908,30.66 C37.908,29.6199948 37.7460016,28.704004 37.422,27.912 C37.0979984,27.119996 36.6460029,26.4580027 36.066,25.926 C35.4859971,25.3939973 34.792004,24.9940013 33.984,24.726 C33.175996,24.4579987 32.2920048,24.324 31.332,24.324 C30.2839948,24.324 29.3100045,24.521998 28.41,24.918 C27.5099955,25.314002 26.7300033,25.8559966 26.07,26.544 C25.4099967,27.2320034 24.8940019,28.0439953 24.522,28.98 C24.1499981,29.9160047 23.964,30.9239946 23.964,32.004 C23.964,33.3160066 24.167998,34.469995 24.576,35.466 C24.984002,36.462005 25.5439964,37.2939967 26.256,37.962 C26.9680036,38.6300033 27.8059952,39.1319983 28.77,39.468 C29.7340048,39.8040017 30.7759944,39.972 31.896,39.972 C32.5120031,39.972 33.0879973,39.9380003 33.624,39.87 C34.1600027,39.8019997 34.6519978,39.7100006 35.1,39.594 C35.5480022,39.4779994 35.9559982,39.3460007 36.324,39.198 C36.6920018,39.0499993 37.0199986,38.8920008 37.308,38.724 C37.4680008,38.6359996 37.6039994,38.592 37.716,38.592 C37.9480012,38.592 38.1119995,38.7199987 38.208,38.976 L38.616,40.044 C37.7839958,40.5880027 36.8120056,41.0319983 35.7,41.376 C34.5879944,41.7200017 33.3200071,41.892 31.896,41.892 C30.4479928,41.892 29.1080062,41.6640023 27.876,41.208 C26.6439938,40.7519977 25.5780045,40.0980043 24.678,39.246 C23.7779955,38.3939957 23.0740025,37.3560061 22.566,36.132 C22.0579975,34.9079939 21.804,33.5320076 21.804,32.004 C21.804,31.1479957 21.9139989,30.316004 22.134,29.508 C22.3540011,28.699996 22.667998,27.9420035 23.076,27.234 C23.484002,26.5259965 23.9759971,25.876003 24.552,25.284 C25.1280029,24.691997 25.7679965,24.1840021 26.472,23.76 C27.1760035,23.3359979 27.9379959,23.0060012 28.758,22.77 C29.5780041,22.5339988 30.4359955,22.416 31.332,22.416 C32.4680057,22.416 33.5579948,22.6059981 34.602,22.986 C35.6460052,23.3660019 36.569996,23.9099965 37.374,24.618 C38.178004,25.3260035 38.8199976,26.1899949 39.3,27.21 C39.7800024,28.2300051 40.02,29.3799936 40.02,30.66 C40.02,31.5160043 39.8940013,32.3179963 39.642,33.066 C39.3899987,33.8140037 39.0380023,34.4639972 38.586,35.016 C38.1339977,35.5680028 37.6020031,36.0019984 36.99,36.318 C36.3779969,36.6340016 35.7120036,36.792 34.992,36.792 Z M30.024,34.872 C30.232001,34.872 30.4419989,34.8400003 30.654,34.776 C30.8660011,34.7119997 31.067999,34.5980008 31.26,34.434 C31.452001,34.2699992 31.6279992,34.0520014 31.788,33.78 C31.9480008,33.5079986 32.0799995,33.168002 32.184,32.76 L33.06,29.376 C32.8039987,29.3279998 32.5400014,29.304 32.268,29.304 C31.7719975,29.304 31.3080022,29.4119989 30.876,29.628 C30.4439978,29.8440011 30.0700016,30.1359982 29.754,30.504 C29.4379984,30.8720018 29.1880009,31.2939976 29.004,31.77 C28.8199991,32.2460024 28.728,32.7399974 28.728,33.252 C28.728,33.7640026 28.8379989,34.1619986 29.058,34.446 C29.2780011,34.7300014 29.5999979,34.872 30.024,34.872 Z"/>
  </g>
</svg>
