<svg xmlns="http://www.w3.org/2000/svg" width="48" height="48" viewBox="0 0 48 48">
  <g fill="none" fill-rule="evenodd" transform="translate(1 2)">
    <rect width="46" height="34" y="11" stroke="#F6BE00" stroke-width="2" stroke-linejoin="round"/>
    <path stroke="#F6BE00" d="M21.2377548 3.46027967L13.2383054 10.6351827M24.9664258 3.28535501L32.7618925 10.6351827"/>
    <circle cx="23" cy="2" r="2" stroke="#F6BE00"/>
    <path stroke="#F6BE00" d="M0.247311828,16.5 L45.7526882,16.5"/>
    <path fill="#00B388" d="M12.88,33.094 L11.494,33.094 C11.435333,33.9300042 11.5269988,34.6706634 11.769,35.316 C12.0110012,35.9613366 12.370331,36.5039978 12.847,36.944 C13.3236691,37.3840022 13.8956633,37.7213322 14.563,37.956 C15.2303367,38.1906678 15.959996,38.308 16.752,38.308 C17.4560035,38.308 18.1306634,38.209001 18.776,38.011 C19.4213366,37.812999 19.9859976,37.516002 20.47,37.12 C20.9540024,36.723998 21.3389986,36.2363362 21.625,35.657 C21.9110014,35.0776638 22.054,34.4066705 22.054,33.644 C22.054,32.6319949 21.7790028,31.7850034 21.229,31.103 C20.6789973,30.4209966 19.8980051,29.9993341 18.886,29.838 L18.886,29.794 C19.7220042,29.5886656 20.3636644,29.1780031 20.811,28.562 C21.2583356,27.9459969 21.482,27.2200042 21.482,26.384 C21.482,25.6946632 21.3463347,25.1043358 21.075,24.613 C20.8036653,24.1216642 20.4443356,23.7183349 19.997,23.403 C19.5496644,23.0876651 19.0400029,22.8530008 18.468,22.699 C17.8959971,22.5449992 17.3093363,22.468 16.708,22.468 C15.9599963,22.468 15.2853363,22.5963321 14.684,22.853 C14.0826637,23.109668 13.5730021,23.4616644 13.155,23.909 C12.7369979,24.3563356 12.4143345,24.8879969 12.187,25.504 C11.9596655,26.1200031 11.846,26.794663 11.846,27.528 L13.232,27.528 C13.2173333,26.9559971 13.2833326,26.4316691 13.43,25.955 C13.5766674,25.478331 13.8003318,25.0676684 14.101,24.723 C14.4016682,24.3783316 14.7719978,24.1106676 15.212,23.92 C15.6520022,23.7293324 16.1579971,23.634 16.73,23.634 C17.1993357,23.634 17.6356647,23.6889995 18.039,23.799 C18.4423354,23.9090006 18.7979985,24.0849988 19.106,24.327 C19.4140015,24.5690012 19.6559991,24.8696649 19.832,25.229 C20.0080009,25.5883351 20.096,26.0246641 20.096,26.538 C20.096,27.0220024 20.0006676,27.4399982 19.81,27.792 C19.6193324,28.1440018 19.3736682,28.4336655 19.073,28.661 C18.7723318,28.8883345 18.4350019,29.0569995 18.061,29.167 C17.6869981,29.2770006 17.3240018,29.332 16.972,29.332 L15.806,29.332 L15.806,30.498 L16.972,30.498 C17.4853359,30.498 17.9656644,30.5639993 18.413,30.696 C18.8603356,30.8280007 19.252665,31.0296653 19.59,31.301 C19.927335,31.5723347 20.1913324,31.9096647 20.382,32.313 C20.5726676,32.7163354 20.668,33.1966639 20.668,33.754 C20.668,34.2966694 20.5580011,34.7806645 20.338,35.206 C20.1179989,35.6313355 19.8246685,35.9906652 19.458,36.284 C19.0913315,36.5773348 18.6733357,36.7973326 18.204,36.944 C17.7346643,37.0906674 17.2433359,37.164 16.73,37.164 C16.1139969,37.164 15.5603358,37.065001 15.069,36.867 C14.5776642,36.668999 14.1670017,36.3940018 13.837,36.042 C13.5069984,35.6899982 13.2576675,35.2646692 13.089,34.766 C12.9203325,34.2673308 12.8506665,33.7100031 12.88,33.094 L12.88,33.094 Z M29.116,22.468 C28.0013278,22.468 27.0920035,22.7136642 26.388,23.205 C25.6839965,23.6963358 25.1376686,24.3233295 24.749,25.086 C24.3603314,25.8486705 24.096334,26.6993286 23.957,27.638 C23.817666,28.5766714 23.748,29.5006621 23.748,30.41 C23.748,31.3046711 23.817666,32.2213286 23.957,33.16 C24.096334,34.0986714 24.3603314,34.9493295 24.749,35.712 C25.1376686,36.4746705 25.6839965,37.0979976 26.388,37.582 C27.0920035,38.0660024 28.0013278,38.308 29.116,38.308 C30.245339,38.308 31.1583299,38.0660024 31.855,37.582 C32.5516701,37.0979976 33.0943314,36.4746705 33.483,35.712 C33.8716686,34.9493295 34.135666,34.0986714 34.275,33.16 C34.414334,32.2213286 34.484,31.2973379 34.484,30.388 C34.484,29.4933289 34.414334,28.5766714 34.275,27.638 C34.135666,26.6993286 33.8716686,25.8486705 33.483,25.086 C33.0943314,24.3233295 32.5516701,23.6963358 31.855,23.205 C31.1583299,22.7136642 30.245339,22.468 29.116,22.468 L29.116,22.468 Z M29.116,23.634 C29.9960044,23.634 30.6999974,23.8613311 31.228,24.316 C31.7560026,24.7706689 32.1556653,25.33533 32.427,26.01 C32.6983347,26.68467 32.8779996,27.417996 32.966,28.21 C33.0540004,29.002004 33.098,29.7279967 33.098,30.388 C33.098,31.06267 33.0540004,31.7923294 32.966,32.577 C32.8779996,33.3616706 32.6983347,34.0949966 32.427,34.777 C32.1556653,35.4590034 31.7560026,36.0273311 31.228,36.482 C30.6999974,36.9366689 29.9960044,37.164 29.116,37.164 C28.2359956,37.164 27.5320026,36.9366689 27.004,36.482 C26.4759974,36.0273311 26.0763347,35.4590034 25.805,34.777 C25.5336653,34.0949966 25.3540004,33.3616706 25.266,32.577 C25.1779996,31.7923294 25.134,31.06267 25.134,30.388 C25.134,29.7279967 25.1779996,29.002004 25.266,28.21 C25.3540004,27.417996 25.5336653,26.68467 25.805,26.01 C26.0763347,25.33533 26.4759974,24.7706689 27.004,24.316 C27.5320026,23.8613311 28.2359956,23.634 29.116,23.634 L29.116,23.634 Z"/>
  </g>
</svg>
