<svg xmlns="http://www.w3.org/2000/svg" width="48" height="48" viewBox="0 0 48 48">
  <g fill="none" fill-rule="evenodd" transform="translate(1 1)">
    <path stroke="#C8102E" stroke-width="2" d="M7 12L11 30C11.1503528 30.3099012 11.1425442 30.3246033 11 30L10 34C9.85172826 35.1829282 10.5256676 36 11 36L40 36M45 12L7 12 8 7C7.49824961 6.56583882 6.79722003 6 6 6L-.42108547e-14 6" stroke-linecap="round" stroke-linejoin="round"/>
    <path stroke="#C8102E" stroke-width="2" d="M11,30 L40,27 C40.461601,26.979386 41.152967,26.4462901 41,26 L46,9" stroke-linecap="round" stroke-linejoin="round"/>
    <circle cx="13" cy="43" r="3" stroke="#C8102E"/>
    <circle cx="37" cy="43" r="3" stroke="#C8102E"/>
    <polygon fill="#00B388" stroke="#00B388" stroke-width="2" points="18 8 31 0 37 8" stroke-linecap="round" stroke-linejoin="round"/>
  </g>
</svg>
