<svg xmlns="http://www.w3.org/2000/svg" width="48" height="48" viewBox="0 0 48 48">
  <g fill="none" fill-rule="evenodd" transform="translate(1 1)" stroke-linecap="round" stroke-linejoin="round">
    <circle cx="14.939" cy="31.168" r="5.447" stroke="#00B388"/>
    <path stroke="#00B388" stroke-width="2" d="M25.519,33.7214 L29.502,33.2002 C29.689,31.8486 29.6962,30.5412 29.502,29.1364 L25.519,28.6152 C25.2502,27.498 24.81,26.4504 24.2266,25.4968 L26.6764,22.3094 C25.856,21.2242 24.8888,20.2566 23.804,19.4358 L20.6174,21.885 C19.6634,21.3002 18.615,20.8592 17.497,20.5896 L16.9756,16.606 C15.5916,16.4142 14.2862,16.4154 12.9134,16.6046 L12.3922,20.5866 C11.2722,20.8554 10.2222,21.2962 9.2666,21.8812 L6.0794,19.4316 C5.0388,20.2184 4.0458,21.1946 3.2072,22.3026 L5.6562,25.489 C5.07,26.445 4.6282,27.4958 4.3586,28.6166 L0.376,29.138 C0.1974,30.4302 0.184,31.81 0.376,33.1988 L4.3586,33.72 C4.6282,34.8408 5.07,35.8916 5.6562,36.8476 L3.2072,40.034 C4.0028,41.0854 4.9818,42.075 6.0794,42.905 L9.2666,40.4554 C10.2222,41.0404 11.2722,41.4812 12.3922,41.75 L12.9134,45.732 C14.2862,45.9212 15.5916,45.9224 16.9756,45.7306 L17.4968,41.747 C18.6148,41.4774 19.6632,41.0364 20.6172,40.4516 L23.8038,42.9008 C24.8886,42.0798 25.8558,41.1124 26.6762,40.0272 L24.2264,36.8398 C24.8102,35.8864 25.2502,34.8386 25.519,33.7214 L25.519,33.7214 Z"/>
    <circle cx="35.479" cy="10.465" r="3.538" stroke="#0084B3"/>
    <path stroke="#0084B3" stroke-width="2" d="M41.8478,15.064 L44.6508,15.805 C45.1452,14.9532 45.5076,14.082 45.762,13.0906 L43.244,11.6532 C43.37,10.8334 43.3624,10.0132 43.2334,9.2168 L45.7414,7.7576 C45.4902,6.8084 45.1086,5.8976 44.6086,5.0526 L41.8102,5.8172 C41.333,5.1658 40.7532,4.5844 40.08,4.0986 L40.8212,1.2952 C39.9492,0.7886 39.0768,0.4324 38.108,0.1834 L36.671,2.7008 C35.8494,2.574 35.0274,2.5814 34.2292,2.7108 L32.77,0.2028 C31.866,0.4422 30.935,0.821 30.0664,1.335 L30.831,4.1332 C30.178,4.6114 29.5954,5.1926 29.109,5.8676 L26.3062,5.1266 C25.8336,5.9408 25.4474,6.859 25.1958,7.8392 L27.7136,9.2764 C27.5872,10.0988 27.595,10.9216 27.725,11.7204 L25.2178,13.1792 C25.4592,14.0892 25.8402,15.0196 26.3512,15.8824 L29.1502,15.1178 C29.6286,15.7698 30.2094,16.3516 30.884,16.8374 L30.1432,19.6398 C31.0084,20.1416 31.8802,20.4994 32.857,20.7498 L34.2946,18.2314 C35.1152,18.357 35.936,18.3492 36.7332,18.2194 L38.192,20.7268 C39.141,20.475 40.0518,20.0932 40.8966,19.5928 L40.1318,16.7938 C40.7822,16.3164 41.3628,15.7368 41.8478,15.064 L41.8478,15.064 Z"/>
  </g>
</svg>
