<svg xmlns="http://www.w3.org/2000/svg" width="37" height="37" viewBox="0 0 37 37">
  <g fill="none" fill-rule="evenodd" transform="rotate(45 33.172 -19.678)">
    <rect width="100" height="16" x="1" y="1" fill="#C8102E"/>
    <path fill="#FFFFFF" d="M39.884,13 L39.884,5.524 L42.452,5.524 C44,5.524 44.816,6.28 44.816,7.42 C44.816,8.308 44.24,8.896 43.604,9.064 L43.604,9.088 C44.42,9.256 45.056,9.844 45.056,10.84 C45.056,12.148 44.096,13 42.524,13 L39.884,13 Z M41.132,12.004 L42.344,12.004 C43.232,12.004 43.7,11.584 43.7,10.804 C43.7,10 43.268,9.556 42.368,9.556 L41.132,9.556 L41.132,12.004 Z M41.132,8.656 L42.308,8.656 C43.172,8.656 43.568,8.26 43.568,7.552 C43.568,6.94 43.184,6.52 42.32,6.52 L41.132,6.52 L41.132,8.656 Z M46.712,13 L46.712,5.524 L50.96,5.524 L50.96,6.556 L47.96,6.556 L47.96,8.548 L50.516,8.548 L50.516,9.532 L47.96,9.532 L47.96,11.968 L50.96,11.968 L50.96,13 L46.712,13 Z M53.816,13 L53.816,6.556 L51.776,6.556 L51.776,5.524 L57.188,5.524 L57.188,6.556 L55.052,6.556 L55.052,13 L53.816,13 Z M59.252,10.24 L61.676,10.24 L60.956,8.08 C60.788,7.576 60.584,6.964 60.5,6.604 L60.476,6.604 C60.38,6.964 60.176,7.576 60.008,8.08 L59.252,10.24 Z M57.044,13 L59.816,5.524 L61.256,5.524 L63.944,13 L62.576,13 L62,11.26 L58.916,11.26 L58.316,13 L57.044,13 Z"/>
  </g>
</svg>
