<?xml version="1.0" encoding="UTF-8" standalone="no"?>
<svg width="90px" height="15px" viewBox="0 0 90 15" version="1.1" xmlns="http://www.w3.org/2000/svg" xmlns:xlink="http://www.w3.org/1999/xlink" xmlns:sketch="http://www.bohemiancoding.com/sketch/ns">
    <!-- Generator: Sketch 3.3.2 (12043) - http://www.bohemiancoding.com/sketch -->
    <title>logo-mini-nsmit</title>
    <desc>Created with Sketch.</desc>
    <defs></defs>
    <g id="Page-1" stroke="none" stroke-width="1" fill="none" fill-rule="evenodd" sketch:type="MSPage">
        <g id="nsm-it-mini-logo" sketch:type="MSArtboardGroup">
            <g id="logo" sketch:type="MSLayerGroup">
                <path d="M72.5801633,0.420986301 L72.5801633,4.08160274 L78.9440408,4.08160274 L78.9440408,14.784411 L83.5077143,14.784411 L83.5077143,4.08160274 L89.8715918,4.08160274 L89.8715918,0.420986301 L72.5801633,0.420986301 Z M67.1809796,6.21961644 L70.0438367,6.21961644 L70.0438367,9.27776712 L67.1809796,9.27776712 L67.1809796,14.784411 L71.7446531,14.784411 L71.7446531,0.420986301 L67.1809796,0.420986301 L67.1809796,6.21961644 Z" id="it" fill="#C8102E" sketch:type="MSShapeGroup"></path>
                <path d="M64.0192245,0.421006849 L56.1769796,0.421006849 L51.913102,9.7454589 L47.6702449,0.421006849 L39.7853469,0.421006849 L39.7853469,14.7844315 L43.9441224,14.7844315 L43.9635102,4.03888356 L44.7347347,4.03888356 L50.1133061,14.7844315 L53.7341224,14.7844315 L59.1122857,4.03888356 L59.8412653,4.03888356 L59.8545306,14.7844315 L64.0192245,14.7844315 L64.0192245,9.27758219 L61.4922857,9.27758219 L61.4890204,6.21963699 L64.0192245,6.21963699 L64.0192245,0.421006849 Z M37.3200408,6.66614384 C36.3982041,6.08484247 35.4767755,5.97696575 30.763102,5.82614384 C27.7418776,5.74004795 26.5633061,5.6755274 26.1775918,5.56765068 C25.7277959,5.46039041 25.5349388,5.18011644 25.5349388,4.64155479 C25.5349388,3.58641781 25.8561633,3.50032192 29.3914694,3.50032192 C32.605551,3.50032192 33.1414694,3.54367808 33.505551,3.75881507 C33.8271837,3.95258219 33.8910612,4.14676027 33.9341224,4.94319863 L38.1337143,4.94319863 C38.155551,4.64155479 38.155551,4.3405274 38.155551,4.21128082 C38.155551,2.57422603 37.7914694,1.64833562 36.9553469,1.08881507 C35.9482041,0.399636986 34.4267755,0.205458904 30.3557551,0.205458904 C26.8418776,0.205458904 24.9135102,0.291965753 24.0565714,0.464157534 C22.0853469,0.894636986 21.3135102,2.12217123 21.3135102,4.85730822 C21.3135102,8.0225137 22.2992245,8.92682877 25.8349388,9.03511644 C27.1418776,9.09963699 28.2773878,9.14237671 29.3057551,9.18511644 L30.4414694,9.22888356 L32.7341224,9.31436301 C34.1269796,9.33634932 34.4484082,9.55189726 34.4484082,10.3914863 C34.4484082,11.6833356 34.4484082,11.6833356 29.7771837,11.6833356 C26.713102,11.6833356 26.2418776,11.6403904 25.8349388,11.3821027 C25.4920816,11.1665548 25.4063673,10.8871027 25.4063673,10.0257329 L21.1851429,10.0257329 L21.1851429,10.7790205 C21.1851429,12.6957329 21.5065714,13.5353219 22.4922857,14.1603904 C23.4992245,14.7844315 25.2347347,14.9999795 29.6702449,14.9999795 C33.9341224,14.9999795 35.7341224,14.8927192 36.5908571,14.5695 C38.0912653,14.009363 38.6694286,12.8031986 38.6694286,10.1977192 C38.6694286,8.28100685 38.2839184,7.29059589 37.3200408,6.66614384 L37.3200408,6.66614384 Z M15.6833061,11.1238151 L15.232898,11.1238151 L7.75514286,0.421006849 L0.127387755,0.421006849 L0.127387755,14.7844315 L4.47289796,14.7844315 L4.45534694,4.08162329 L4.92677551,4.08162329 L12.4475918,14.7844315 L20.0112653,14.7844315 L20.0112653,0.421006849 L15.6973878,0.421006849 L15.6833061,11.1238151 Z" id="nsm" fill="#54585A" sketch:type="MSShapeGroup"></path>
            </g>
        </g>
    </g>
</svg>