<?xml version="1.0" encoding="UTF-8" standalone="no"?>
<svg width="200px" height="16px" viewBox="0 0 200 16" version="1.1" xmlns="http://www.w3.org/2000/svg" xmlns:xlink="http://www.w3.org/1999/xlink" xmlns:sketch="http://www.bohemiancoding.com/sketch/ns">
    <!-- Generator: Sketch 3.3.2 (12043) - http://www.bohemiancoding.com/sketch -->
    <title>logo-mini-nsm</title>
    <desc>Created with Sketch.</desc>
    <defs></defs>
    <g id="Page-1" stroke="none" stroke-width="1" fill="none" fill-rule="evenodd" sketch:type="MSPage">
        <g id="nsm-mini-logo" sketch:type="MSArtboardGroup">
            <g id="nsm-logo" sketch:type="MSLayerGroup">
                <path d="M175.637968,13.6119643 L175.637968,3.37339286 L177.501604,3.37339286 L180.734225,10.0060714 L180.762567,10.0060714 L180.762567,3.37339286 L182.315508,3.37339286 L182.315508,13.6119643 L180.790909,13.6119643 L177.219251,6.42803571 L177.191444,6.42803571 L177.191444,13.6119643 L175.637968,13.6119643" id="Fill-1" fill="#777776" sketch:type="MSShapeGroup"></path>
                <path d="M185.308021,10.4303571 C185.407487,11.3775 185.717647,12.2260714 186.804813,12.2260714 C187.623529,12.2260714 188.216578,11.6185714 188.216578,10.7839286 C188.216578,8.37964286 183.868449,9.93535714 183.868449,5.97535714 C183.868449,4.29267857 185.139037,3.20357143 186.776471,3.20357143 C188.654011,3.20357143 189.571658,4.47642857 189.684492,6.23035714 L188.061497,6.23035714 C187.962032,5.4525 187.552941,4.75928571 186.706417,4.75928571 C185.929412,4.75928571 185.505882,5.325 185.505882,6.07446429 C185.505882,8.20982143 189.854011,6.76767857 189.854011,10.6708929 C189.854011,12.5517857 188.640107,13.7817857 186.762567,13.7817857 C184.771658,13.7817857 183.685027,12.3391071 183.671123,10.4303571 L185.308021,10.4303571" id="Fill-2" fill="#777776" sketch:type="MSShapeGroup"></path>
                <path d="M191.280214,3.37339286 L193.736898,3.37339286 L195.416578,10.8123214 L195.444385,10.8123214 L197.152941,3.37339286 L199.609091,3.37339286 L199.609091,13.6119643 L197.971658,13.6119643 L197.971658,5.38178571 L197.943316,5.38178571 L195.995187,13.6119643 L194.894118,13.6119643 L192.946524,5.38178571 L192.918182,5.38178571 L192.918182,13.6119643 L191.280214,13.6119643 L191.280214,3.37339286" id="Fill-3" fill="#777776" sketch:type="MSShapeGroup"></path>
                <path d="M171.869519,15 L171.869519,0.533035714" id="Fill-4" fill="#D02138" sketch:type="MSShapeGroup"></path>
                <path d="M171.869519,15 L171.869519,0.533035714" id="Stroke-5" stroke="#777776" stroke-width="0.5" sketch:type="MSShapeGroup"></path>
                <path d="M1.12299465,3.465 L1.12299465,9.63803571 C1.12299465,10.36125 1.22941176,11.0169643 1.45721925,11.4326786 C2.05828877,12.54375 3.0342246,12.6503571 3.50160428,12.6503571 C3.96951872,12.6503571 4.94545455,12.54375 5.54705882,11.4326786 C5.77379679,11.0169643 5.88128342,10.36125 5.88128342,9.63803571 L5.88128342,3.465 L6.87005348,3.465 L6.87005348,9.63803571 C6.87005348,10.4678571 6.73636364,11.1782143 6.49572193,11.7005357 C5.8144385,13.1860714 4.42406417,13.5482143 3.50160428,13.5482143 C2.57967914,13.5482143 1.18983957,13.1860714 0.50802139,11.7005357 C0.267379679,11.1782143 0.13368984,10.4678571 0.13368984,9.63803571 L0.13368984,3.465 L1.12299465,3.465" id="Fill-7" fill="#777776" sketch:type="MSShapeGroup"></path>
                <path d="M1.12299465,3.465 L1.12299465,9.63803571 C1.12299465,10.36125 1.22941176,11.0169643 1.45721925,11.4326786 C2.05828877,12.54375 3.0342246,12.6503571 3.50160428,12.6503571 C3.96951872,12.6503571 4.94545455,12.54375 5.54705882,11.4326786 C5.77379679,11.0169643 5.88128342,10.36125 5.88128342,9.63803571 L5.88128342,3.465 L6.87005348,3.465 L6.87005348,9.63803571 C6.87005348,10.4678571 6.73636364,11.1782143 6.49572193,11.7005357 C5.8144385,13.1860714 4.42406417,13.5482143 3.50160428,13.5482143 C2.57967914,13.5482143 1.18983957,13.1860714 0.50802139,11.7005357 C0.267379679,11.1782143 0.13368984,10.4678571 0.13368984,9.63803571 L0.13368984,3.465 L1.12299465,3.465 L1.12299465,3.465 Z" id="Stroke-8" stroke="#777776" stroke-width="0.5" sketch:type="MSShapeGroup"></path>
                <path d="M10.2272727,3.465 L11.5636364,3.465 L17.0839572,11.6866071 L17.1106952,11.6866071 L17.1106952,3.465 L18.0994652,3.465 L18.0994652,13.3735714 L17.1106952,13.3735714 L11.2427807,4.65642857 L11.2165775,4.65642857 L11.2165775,13.3735714 L10.2272727,13.3735714 L10.2272727,3.465" id="Fill-10" fill="#777776" sketch:type="MSShapeGroup"></path>
                <path d="M10.2272727,3.465 L11.5636364,3.465 L17.0839572,11.6866071 L17.1106952,11.6866071 L17.1106952,3.465 L18.0994652,3.465 L18.0994652,13.3735714 L17.1106952,13.3735714 L11.2427807,4.65642857 L11.2165775,4.65642857 L11.2165775,13.3735714 L10.2272727,13.3735714 L10.2272727,3.465 L10.2272727,3.465 Z" id="Stroke-11" stroke="#777776" stroke-width="0.5" sketch:type="MSShapeGroup"></path>
                <path d="M21.4705882,3.465 L22.459893,3.465 L22.459893,13.3735714 L21.4705882,13.3735714 L21.4705882,3.465 Z" id="Fill-12" fill="#777776" sketch:type="MSShapeGroup"></path>
                <path d="M21.4705882,3.465 L22.459893,3.465 L22.459893,13.3735714 L21.4705882,13.3735714 L21.4705882,3.465 Z" id="Stroke-13" stroke="#777776" stroke-width="0.5" sketch:type="MSShapeGroup"></path>
                <path d="M24.9197861,3.465 L26.0160428,3.465 L29.5042781,12.1419643 L33.0064171,3.465 L34.0754011,3.465 L29.9721925,13.3735714 L28.9967914,13.3735714 L24.9197861,3.465" id="Fill-14" fill="#777776" sketch:type="MSShapeGroup"></path>
                <path d="M24.9197861,3.465 L26.0160428,3.465 L29.5042781,12.1419643 L33.0064171,3.465 L34.0754011,3.465 L29.9721925,13.3735714 L28.9967914,13.3735714 L24.9197861,3.465 L24.9197861,3.465 Z" id="Stroke-15" stroke="#777776" stroke-width="0.5" sketch:type="MSShapeGroup"></path>
                <path d="M36.4705882,3.465 L41.8834225,3.465 L41.8834225,4.36178571 L37.4593583,4.36178571 L37.4593583,7.92321429 L41.7363636,7.92321429 L41.7363636,8.82107143 L37.4593583,8.82107143 L37.4593583,12.4767857 L41.8834225,12.4767857 L41.8834225,13.3735714 L36.4705882,13.3735714 L36.4705882,3.465" id="Fill-16" fill="#777776" sketch:type="MSShapeGroup"></path>
                <path d="M36.4705882,3.465 L41.8834225,3.465 L41.8834225,4.36178571 L37.4593583,4.36178571 L37.4593583,7.92321429 L41.7363636,7.92321429 L41.7363636,8.82107143 L37.4593583,8.82107143 L37.4593583,12.4767857 L41.8834225,12.4767857 L41.8834225,13.3735714 L36.4705882,13.3735714 L36.4705882,3.465 L36.4705882,3.465 Z" id="Stroke-17" stroke="#777776" stroke-width="0.5" sketch:type="MSShapeGroup"></path>
                <path d="M44.973262,3.465 L47.4855615,3.465 C48.8090909,3.465 49.4641711,3.62625 49.9181818,3.83946429 C51.0278075,4.36178571 51.6823529,5.44660714 51.6823529,6.66535714 C51.6823529,8.09785714 50.6534759,9.55767857 48.742246,9.67767857 L51.5358289,13.3735714 L50.2925134,13.3735714 L46.9379679,8.88803571 C48.1941176,8.88803571 48.6219251,8.87410714 49.0631016,8.74017857 C50.1454545,8.43267857 50.6935829,7.5225 50.6935829,6.63857143 C50.6935829,5.86178571 50.2524064,5.05821429 49.6106952,4.73732143 C49.0229947,4.42875 48.5149733,4.36178571 47.6860963,4.36178571 L45.9620321,4.36178571 L45.9620321,13.3735714 L44.973262,13.3735714 L44.973262,3.465" id="Fill-18" fill="#777776" sketch:type="MSShapeGroup"></path>
                <path d="M44.973262,3.465 L47.4855615,3.465 C48.8090909,3.465 49.4641711,3.62625 49.9181818,3.83946429 C51.0278075,4.36178571 51.6823529,5.44660714 51.6823529,6.66535714 C51.6823529,8.09785714 50.6534759,9.55767857 48.742246,9.67767857 L51.5358289,13.3735714 L50.2925134,13.3735714 L46.9379679,8.88803571 C48.1941176,8.88803571 48.6219251,8.87410714 49.0631016,8.74017857 C50.1454545,8.43267857 50.6935829,7.5225 50.6935829,6.63857143 C50.6935829,5.86178571 50.2524064,5.05821429 49.6106952,4.73732143 C49.0229947,4.42875 48.5149733,4.36178571 47.6860963,4.36178571 L45.9620321,4.36178571 L45.9620321,13.3735714 L44.973262,13.3735714 L44.973262,3.465 L44.973262,3.465 Z" id="Stroke-19" stroke="#777776" stroke-width="0.5" sketch:type="MSShapeGroup"></path>
                <path d="M54.7721925,10.6017857 C54.8256684,11.8467857 55.6144385,12.6503571 56.8304813,12.6503571 C57.873262,12.6503571 58.8224599,11.8467857 58.8224599,10.6821429 C58.8224599,9.15589286 57.2850267,8.7675 56.6171123,8.56660714 C55.7213904,8.29875 54.0508021,7.92321429 54.0508021,5.955 C54.0508021,4.41589286 55.2668449,3.29142857 56.8304813,3.29142857 C58.4481283,3.29142857 59.5705882,4.53642857 59.5705882,5.98232143 L58.5812834,5.98232143 C58.5812834,4.97785714 57.7663102,4.18767857 56.8304813,4.18767857 C55.6946524,4.18767857 55.0395722,5.05821429 55.0395722,5.91535714 C55.0395722,7.12071429 56.0957219,7.40089286 57.3919786,7.77696429 C59.8245989,8.43267857 59.8112299,10.3473214 59.8112299,10.6425 C59.8112299,12.1692857 58.5812834,13.5482143 56.8304813,13.5482143 C55.5475936,13.5482143 53.8235294,12.7842857 53.7834225,10.6017857 L54.7721925,10.6017857" id="Fill-20" fill="#777776" sketch:type="MSShapeGroup"></path>
                <path d="M54.7721925,10.6017857 C54.8256684,11.8467857 55.6144385,12.6503571 56.8304813,12.6503571 C57.873262,12.6503571 58.8224599,11.8467857 58.8224599,10.6821429 C58.8224599,9.15589286 57.2850267,8.7675 56.6171123,8.56660714 C55.7213904,8.29875 54.0508021,7.92321429 54.0508021,5.955 C54.0508021,4.41589286 55.2668449,3.29142857 56.8304813,3.29142857 C58.4481283,3.29142857 59.5705882,4.53642857 59.5705882,5.98232143 L58.5812834,5.98232143 C58.5812834,4.97785714 57.7663102,4.18767857 56.8304813,4.18767857 C55.6946524,4.18767857 55.0395722,5.05821429 55.0395722,5.91535714 C55.0395722,7.12071429 56.0957219,7.40089286 57.3919786,7.77696429 C59.8245989,8.43267857 59.8112299,10.3473214 59.8112299,10.6425 C59.8112299,12.1692857 58.5812834,13.5482143 56.8304813,13.5482143 C55.5475936,13.5482143 53.8235294,12.7842857 53.7834225,10.6017857 L54.7721925,10.6017857 L54.7721925,10.6017857 Z" id="Stroke-21" stroke="#777776" stroke-width="0.5" sketch:type="MSShapeGroup"></path>
                <path d="M62.4994652,3.465 L63.4887701,3.465 L63.4887701,13.3735714 L62.4994652,13.3735714 L62.4994652,3.465 Z" id="Fill-22" fill="#777776" sketch:type="MSShapeGroup"></path>
                <path d="M62.4994652,3.465 L63.4887701,3.465 L63.4887701,13.3735714 L62.4994652,13.3735714 L62.4994652,3.465 Z" id="Stroke-23" stroke="#777776" stroke-width="0.5" sketch:type="MSShapeGroup"></path>
                <path d="M68.1941176,4.36178571 L65.9219251,4.36178571 L65.9219251,3.465 L71.4427807,3.465 L71.4427807,4.36178571 L69.1834225,4.36178571 L69.1834225,13.3735714 L68.1941176,13.3735714 L68.1941176,4.36178571" id="Fill-24" fill="#777776" sketch:type="MSShapeGroup"></path>
                <path d="M68.1941176,4.36178571 L65.9219251,4.36178571 L65.9219251,3.465 L71.4427807,3.465 L71.4427807,4.36178571 L69.1834225,4.36178571 L69.1834225,13.3735714 L68.1941176,13.3735714 L68.1941176,4.36178571 L68.1941176,4.36178571 Z" id="Stroke-25" stroke="#777776" stroke-width="0.5" sketch:type="MSShapeGroup"></path>
                <path d="M76.3224599,10.0660714 L72.8871658,3.465 L73.9839572,3.465 L76.8037433,9.02196429 L79.7042781,3.465 L80.7860963,3.465 L77.3112299,10.0660714 L77.3112299,13.3735714 L76.3224599,13.3735714 L76.3224599,10.0660714" id="Fill-26" fill="#777776" sketch:type="MSShapeGroup"></path>
                <path d="M76.3224599,10.0660714 L72.8871658,3.465 L73.9839572,3.465 L76.8037433,9.02196429 L79.7042781,3.465 L80.7860963,3.465 L77.3112299,10.0660714 L77.3112299,13.3735714 L76.3224599,13.3735714 L76.3224599,10.0660714 L76.3224599,10.0660714 Z" id="Stroke-27" stroke="#777776" stroke-width="0.5" sketch:type="MSShapeGroup"></path>
                <path d="M85.5828877,12.7842857 C86.8304813,12.7842857 88.1251337,11.7948214 88.1251337,10.1089286 C88.1251337,8.41071429 86.6887701,7.50267857 85.5828877,7.50267857 C84.4069519,7.50267857 83.0417112,8.46964286 83.0417112,10.1791071 C83.0417112,11.6764286 84.2534759,12.7842857 85.5828877,12.7842857 L85.5828877,12.7842857 Z M85.5716578,6.76071429 C87.4775401,6.76071429 88.9481283,8.37535714 88.9481283,10.14375 C88.9481283,11.9003571 87.5016043,13.5273214 85.5716578,13.5273214 C83.6887701,13.5273214 82.2181818,11.9357143 82.2181818,10.1914286 C82.2181818,8.15142857 83.8775401,6.76071429 85.5716578,6.76071429 L85.5716578,6.76071429 Z" id="Fill-28" fill="#777776" sketch:type="MSShapeGroup"></path>
                <path d="M85.5828877,12.7842857 C86.8304813,12.7842857 88.1251337,11.7948214 88.1251337,10.1089286 C88.1251337,8.41071429 86.6887701,7.50267857 85.5828877,7.50267857 C84.4069519,7.50267857 83.0417112,8.46964286 83.0417112,10.1791071 C83.0417112,11.6764286 84.2534759,12.7842857 85.5828877,12.7842857 L85.5828877,12.7842857 Z M85.5716578,6.76071429 C87.4775401,6.76071429 88.9481283,8.37535714 88.9481283,10.14375 C88.9481283,11.9003571 87.5016043,13.5273214 85.5716578,13.5273214 C83.6887701,13.5273214 82.2181818,11.9357143 82.2181818,10.1914286 C82.2181818,8.15142857 83.8775401,6.76071429 85.5716578,6.76071429 L85.5716578,6.76071429 Z" id="Stroke-29" stroke="#777776" stroke-width="0.5" sketch:type="MSShapeGroup"></path>
                <path d="M90.6534759,7.66821429 L89.6529412,7.66821429 L89.6529412,6.92517857 L90.6534759,6.92517857 C90.6770053,6.02946429 90.7475936,4.52035714 93.1251337,4.49732143 L93.1251337,5.26339286 C91.4540107,5.26339286 91.4775401,6.32464286 91.4775401,6.92517857 L93.1251337,6.92517857 L93.1251337,7.66821429 L91.4775401,7.66821429 L91.4775401,13.3735714 L90.6534759,13.3735714 L90.6534759,7.66821429" id="Fill-30" fill="#777776" sketch:type="MSShapeGroup"></path>
                <path d="M90.6534759,7.66821429 L89.6529412,7.66821429 L89.6529412,6.92517857 L90.6534759,6.92517857 C90.6770053,6.02946429 90.7475936,4.52035714 93.1251337,4.49732143 L93.1251337,5.26339286 C91.4540107,5.26339286 91.4775401,6.32464286 91.4775401,6.92517857 L93.1251337,6.92517857 L93.1251337,7.66821429 L91.4775401,7.66821429 L91.4775401,13.3735714 L90.6534759,13.3735714 L90.6534759,7.66821429 L90.6534759,7.66821429 Z" id="Stroke-31" stroke="#777776" stroke-width="0.5" sketch:type="MSShapeGroup"></path>
                <path d="M97.3085561,3.23678571 L99.9042781,3.23678571 L99.9042781,7.06285714 L103.229412,7.06285714 L103.229412,3.23678571 L105.825668,3.23678571 L105.825668,13.4207143 L103.229412,13.4207143 L103.229412,9.34714286 L99.9042781,9.34714286 L99.9042781,13.4207143 L97.3085561,13.4207143 L97.3085561,3.23678571" id="Fill-32" fill="#D02138" sketch:type="MSShapeGroup"></path>
                <path d="M113.313904,11.32875 C115.154545,11.32875 116.047594,9.65089286 116.047594,8.34267857 C116.047594,7.02107143 115.154545,5.32821429 113.286631,5.32821429 C111.486631,5.32821429 110.51123,6.86946429 110.51123,8.30089286 C110.51123,9.87053571 111.568984,11.32875 113.313904,11.32875 L113.313904,11.32875 Z M113.272193,3.04446429 C116.404813,3.04446429 118.64385,5.49375 118.64385,8.32928571 C118.64385,11.16375 116.418717,13.6141071 113.258824,13.6141071 C110.058289,13.6141071 107.914973,11.0673214 107.914973,8.4525 C107.914973,7.77803571 108.010695,7.02107143 108.313369,6.27857143 C108.849198,4.95696429 110.429412,3.04446429 113.272193,3.04446429 L113.272193,3.04446429 Z" id="Fill-33" fill="#D02138" sketch:type="MSShapeGroup"></path>
                <path d="M123.302139,3.23678571 L123.302139,9.38892857 C123.302139,10.0767857 123.34385,11.32875 124.62139,11.32875 C125.912834,11.32875 125.912834,10.2010714 125.912834,9.38892857 L125.912834,3.23678571 L128.509091,3.23678571 L128.509091,9.38892857 C128.509091,11.0957143 128.138503,11.8521429 127.491979,12.5121429 C126.833155,13.1871429 125.912834,13.6141071 124.648663,13.6141071 C123.906952,13.6141071 122.560428,13.4351786 121.72246,12.5260714 C120.885027,11.6041071 120.706417,10.8883929 120.706417,9.38892857 L120.706417,3.23678571 L123.302139,3.23678571" id="Fill-34" fill="#D02138" sketch:type="MSShapeGroup"></path>
                <path d="M134.994118,6.20946429 C134.939037,5.865 134.857219,5.21839286 134.059893,5.21839286 C133.606417,5.21839286 133.166845,5.53446429 133.166845,6.01660714 C133.166845,6.62196429 133.441711,6.74625 135.268984,7.57178571 C137.164706,8.42571429 137.645455,9.30642857 137.645455,10.4898214 C137.645455,11.9758929 136.794118,13.6141071 134.10107,13.6141071 C131.161497,13.6141071 130.433155,11.6866071 130.433155,10.38 L130.433155,10.0494643 L133.016043,10.0494643 C133.016043,11.2328571 133.744385,11.4396429 134.073797,11.4396429 C134.691979,11.4396429 135.063102,10.9301786 135.063102,10.4625 C135.063102,9.78803571 134.636898,9.6225 133.071123,8.9625 C132.356684,8.67267857 130.583957,7.9575 130.583957,6.04392857 C130.583957,4.13142857 132.439037,3.04446429 134.142781,3.04446429 C135.145455,3.04446429 136.230481,3.41571429 136.88984,4.20053571 C137.494652,4.94357143 137.535294,5.63142857 137.563102,6.20946429 L134.994118,6.20946429" id="Fill-35" fill="#D02138" sketch:type="MSShapeGroup"></path>
                <path d="M140.792513,5.52160714 L138.787166,5.52160714 L138.787166,3.23678571 L145.380749,3.23678571 L145.380749,5.52160714 L143.389305,5.52160714 L143.389305,13.4207143 L140.792513,13.4207143 L140.792513,5.52160714" id="Fill-36" fill="#D02138" sketch:type="MSShapeGroup"></path>
                <path d="M151.865241,11.32875 C153.706417,11.32875 154.599465,9.65089286 154.599465,8.34267857 C154.599465,7.02107143 153.706417,5.32821429 151.837968,5.32821429 C150.037968,5.32821429 149.062567,6.86946429 149.062567,8.30089286 C149.062567,9.87053571 150.120856,11.32875 151.865241,11.32875 L151.865241,11.32875 Z M151.824064,3.04446429 C154.956684,3.04446429 157.195722,5.49375 157.195722,8.32928571 C157.195722,11.16375 154.970053,13.6141071 151.81016,13.6141071 C148.609091,13.6141071 146.466845,11.0673214 146.466845,8.4525 C146.466845,7.77803571 146.562567,7.02107143 146.865241,6.27857143 C147.40107,4.95696429 148.980749,3.04446429 151.824064,3.04446429 L151.824064,3.04446429 Z" id="Fill-37" fill="#D02138" sketch:type="MSShapeGroup"></path>
                <path d="M159.285561,3.23678571 L161.524599,3.23678571 L165.453476,9.63589286 L165.481283,9.60910714 L165.371123,3.23678571 L167.857754,3.23678571 L167.857754,13.4207143 L165.604278,13.4207143 L161.730481,7.22732143 L161.703209,7.24125 L161.771658,13.4207143 L159.285561,13.4207143 L159.285561,3.23678571" id="Fill-38" fill="#D02138" sketch:type="MSShapeGroup"></path>
            </g>
        </g>
    </g>
</svg>