<svg xmlns="http://www.w3.org/2000/svg" width="117" height="16" viewBox="0 0 117 16">
  <g fill="none" fill-rule="evenodd" transform="translate(-117)">
    <g fill="#FFFFFF" transform="translate(117)">
      <path d="M64.8437829 4.73812155C64.9614512 4.43167434 65.0349928 4.1605905 65.0644099 3.92486188 65.093827 3.68913326 65.120302 3.48876694 65.1438356 3.32375691 65.1438356 3.07624186 65.1026523 2.88176866 65.0202845 2.74033149 64.9379167 2.59889432 64.8290751 2.49281803 64.6937566 2.42209945 64.558438 2.35138086 64.3995882 2.30423585 64.2172023 2.28066298 64.0348164 2.25709012 63.837725 2.24530387 63.625922 2.24530387L60.3606428 2.24530387 55.912803 16 50 16 55.1538462 0 67.0500527 0C68.4503056 0 69.4710628.20036632 70.1123551.601104972 70.7536474 1.00184362 71.0742887 1.67955324 71.0742887 2.63425414 71.0742887 3.41215859 70.8801389 4.39041768 70.4918335 5.56906077L67.1206533 16 61.1902002 16 64.8437829 4.73812155zM88.3890938 2.24530387L83.1822972 2.24530387C82.8410591 2.24530387 82.4968844 2.28360919 82.1497629 2.36022099 81.8026414 2.4368328 81.4790584 2.56353503 81.1790042 2.74033149 80.87895 2.91712796 80.6112586 3.14990648 80.375922 3.43867403 80.1405854 3.72744159 79.9523189 4.07808265 79.811117 4.49060773 79.7169823 4.76169565 79.6522657 5.01215355 79.6169652 5.24198895 79.5816647 5.47182435 79.5640148 5.66924411 79.5640148 5.83425414 79.5640148 6.11712849 79.7228646 6.34990701 80.040569 6.53259669 80.3582735 6.71528636 80.8524729 6.80662983 81.5231823 6.80662983 82.5821971 6.80662983 83.4499878 6.8655611 84.1265806 6.98342541 84.8031734 7.10128972 85.3356145 7.27219041 85.7239199 7.4961326 86.1122253 7.72007478 86.3828584 7.98821207 86.5358272 8.30055249 86.688796 8.61289291 86.7652792 8.96942709 86.7652792 9.37016575 86.7652792 9.60589436 86.7329209 9.86519196 86.6682034 10.1480663 86.6034858 10.4309406 86.5358275 10.6902382 86.4652266 10.9259669L86.288725 11.4740331C85.9945542 12.3698019 85.594488 13.1093893 85.0885142 13.6928177 84.5825405 14.276246 83.9647911 14.7388565 83.2352476 15.080663 82.5057041 15.4224695 81.6614467 15.6611411 80.7024499 15.7966851 79.7434532 15.932229 78.6638627 16 77.4636459 16L70.3859326 16 71.109589 13.7546961 76.4575869 13.7546961C76.9870943 13.7546961 77.4577605 13.7134442 77.8695996 13.6309392 78.2814387 13.5484342 78.6462049 13.4040526 78.9639094 13.1977901 79.2816138 12.9915275 79.5581302 12.7233902 79.7934668 12.3933702 80.0288034 12.0633501 80.2288365 11.6508312 80.3935722 11.1558011 80.4877068 10.8847132 80.5524234 10.6342553 80.5877239 10.4044199 80.6230244 10.1745845 80.6406744 9.97716473 80.6406744 9.8121547 80.6406744 9.43498891 80.5112412 9.17569131 80.2523709 9.03425414 79.9935006 8.89281697 79.5699011 8.82209945 78.9815595 8.82209945 77.9343116 8.82209945 77.0576958 8.76022161 76.351686 8.63646409 75.6456761 8.51270656 75.0779351 8.34180588 74.6484457 8.12375691 74.2189564 7.90570793 73.9130234 7.64641034 73.7306375 7.34585635 73.5482516 7.04530236 73.4570601 6.71823381 73.4570601 6.36464088 73.4570601 5.84603792 73.56296 5.25672522 73.7747629 4.59668508L73.8806639 4.22541436C74.1395341 3.44750992 74.5013588 2.79042625 74.9661486 2.25414365 75.4309384 1.71786104 76.0016211 1.28176964 76.6782139.945856354 77.3548067.609943072 78.1372892.368324862 79.0256849.220994475 79.9140807.0736640884 80.9113046 0 82.0173867 0L89.1127503 0 88.3890938 2.24530387zM93.7900421 16L87.8772392 16 93.0310854 0 111.581401 0C112.499214 0 113.299347.0412518895 113.981823.123756906 114.664299.206261923 115.229099.350643536 115.676238.556906077 116.123378.763168619 116.455786 1.04309215 116.673472 1.39668508 116.891158 1.75027801 117 2.19815567 117 2.74033149 117 3.07035156 116.9647 3.43572544 116.894099 3.83646409 116.823498 4.23720274 116.705832 4.6850804 116.541096 5.1801105L113.028714 16 107.098261 16 110.751844 4.73812155C110.857746 4.43167434 110.925404 4.16648362 110.954821 3.94254144 110.984238 3.71859925 111.010713 3.5123398 111.034247 3.32375691 111.034247 3.07624186 110.993063 2.88176866 110.910695 2.74033149 110.828328 2.59889432 110.719486 2.49281803 110.584168 2.42209945 110.448849 2.35138086 110.292941 2.30423585 110.116438 2.28066298 109.939936 2.25709012 109.751669 2.24530387 109.551633 2.24530387L107.857218 2.24530387 103.409378 16 97.4789252 16 101.132508 4.73812155C101.238409 4.43167434 101.309009 4.1605905 101.34431 3.92486188 101.37961 3.68913326 101.409027 3.48876694 101.432561 3.32375691 101.432561 3.07624186 101.391377 2.88176866 101.309009 2.74033149 101.226642 2.59889432 101.1178 2.49281803 100.982482 2.42209945 100.847163 2.35138086 100.688313 2.30423585 100.505927 2.28066298 100.323541 2.25709012 100.12645 2.24530387 99.914647 2.24530387L98.237882 2.24530387 93.7900421 16zM5.94467641 16L0 16 5.18162839 0 23.8319415 0C24.7547019 0 25.5591476.0412518895 26.2453027.123756906 26.9314578.206261923 27.4993019.350643536 27.9488518.556906077 28.3984017.763168619 28.7326016 1.04309215 28.9514614 1.39668508 29.1703212 1.75027801 29.2797495 2.19815567 29.2797495 2.74033149 29.2797495 3.07035156 29.2442592 3.43572544 29.1732777 3.83646409 29.1022961 4.23720274 28.9839953 4.6850804 28.8183716 5.1801105L25.2870564 16 19.3246347 16 22.9979123 4.73812155C23.1043847 4.43167434 23.1724076 4.16648362 23.2019833 3.94254144 23.231559 3.71859925 23.2581766 3.5123398 23.2818372 3.32375691 23.2818372 3.07624186 23.2404319 2.88176866 23.15762 2.74033149 23.0748082 2.59889432 22.9653799 2.49281803 22.8293319 2.42209945 22.6932839 2.35138086 22.5365353 2.30423585 22.3590814 2.28066298 22.1816275 2.25709012 21.9923462 2.24530387 21.7912317 2.24530387L20.0876827 2.24530387 15.6158664 16 9.65344468 16 13.3267223 4.73812155C13.4331947 4.43167434 13.5041752 4.1605905 13.539666 3.92486188 13.5751568 3.68913326 13.604732 3.48876694 13.6283925 3.32375691 13.6283925 3.07624186 13.5869872 2.88176866 13.5041754 2.74033149 13.4213635 2.59889432 13.3119353 2.49281803 13.1758873 2.42209945 13.0398393 2.35138086 12.8801331 2.30423585 12.6967641 2.28066298 12.513395 2.25709012 12.3152411 2.24530387 12.1022965 2.24530387L10.4164927 2.24530387 5.94467641 16zM47.8768267 9.54696133C47.5574097 10.548808 47.1522293 11.4475098 46.6612735 12.2430939 46.1703177 13.038678 45.5669834 13.7163876 44.8512526 14.2762431 44.1355218 14.8360986 43.2837558 15.2633503 42.295929 15.558011 41.3081022 15.8526718 40.1517116 16 38.8267223 16L30.0782881 16 30.8058455 13.7546961 37.460334 13.7546961C38.0163563 13.7546961 38.5132198 13.6869252 38.9509395 13.5513812 39.3886591 13.4158373 39.7820094 13.194845 40.1310021 12.8883978 40.4799948 12.5819506 40.7905345 12.1841645 41.0626305 11.6950276 41.3347265 11.2058907 41.5831582 10.6136315 41.8079332 9.91823204L36.1471816 9.91823204C35.3427239 9.91823204 34.6713666 9.86224734 34.1330898 9.75027624 33.5948129 9.63830515 33.1630148 9.47624415 32.8376827 9.2640884 32.5123505 9.05193264 32.2787063 8.79263505 32.1367432 8.48618785 31.9947801 8.17974064 31.9237996 7.83793927 31.9237996 7.46077348 31.9237996 7.15432628 31.9592898 6.83315085 32.0302714 6.49723757 32.101253 6.16132429 32.2018087 5.8047901 32.3319415 5.42762431L34.1064718 0 40.0688935 0 38.1878914 5.74585635C38.0577586 6.13480857 37.9926931 6.45303744 37.9926931 6.70055249 37.9926931 7.11307757 38.1287391 7.4018408 38.4008351 7.56685083 38.6729311 7.73186086 39.0337486 7.81436464 39.4832985 7.81436464L42.5 7.81436464 45.0553236 0 51 0 47.8768267 9.54696133z"/>
    </g>
  </g>
</svg>
