<svg xmlns="http://www.w3.org/2000/svg" width="300" height="46" viewBox="0 0 300 46">
  <g fill="none" fill-rule="evenodd">
    <polygon fill="#B4B5B4" points=".05 27.142 299.587 27.142 299.587 26.737 .05 26.737"/>
    <path fill="#888B8D" d="M10.4933884,12.3756429 C10.4933884,13.7008929 10.292562,14.798625 9.92727273,15.4695536 C9.20165289,16.8122411 8.01404959,17.5230268 6.49090909,17.5230268 C4.9677686,17.5230268 3.77933884,16.8122411 3.05371901,15.4687232 C2.68842975,14.798625 2.48760331,13.7008929 2.48760331,12.3756429 L2.48760331,1.0985625 L0.247107438,1.0985625 L0.247107438,12.3756429 C0.247107438,13.8727768 0.485123967,15.1830804 0.936363636,16.1637321 C2.39834711,19.3581161 5.55785124,19.6063929 6.49090909,19.6063929 C7.42396694,19.6063929 10.5842975,19.3581161 12.0446281,16.1645625 C12.4958678,15.1830804 12.7338843,13.8727768 12.7338843,12.3756429 L12.7338843,1.0985625 L10.4933884,1.0985625 L10.4933884,12.3756429"/>
    <polyline fill="#888B8D" points="30.516 15.327 20.991 1.099 18.242 1.099 18.242 19.293 20.483 19.293 20.483 4.18 30.627 19.293 32.755 19.293 32.755 1.099 30.516 1.099 30.516 15.327"/>
    <polygon fill="#888B8D" points="38.288 19.293 40.528 19.293 40.528 1.099 38.288 1.099"/>
    <polyline fill="#888B8D" points="52.85 16.213 46.791 1.099 44.32 1.099 51.724 19.146 51.785 19.293 53.843 19.293 61.356 1.099 58.932 1.099 52.85 16.213"/>
    <polyline fill="#888B8D" points="65.031 19.293 75.159 19.293 75.159 17.212 67.271 17.212 67.271 11.154 74.897 11.154 74.897 9.072 67.271 9.072 67.271 3.181 75.159 3.181 75.159 1.099 65.031 1.099 65.031 19.293"/>
    <path fill="#888B8D" d="M92.6289256 7.05969643C92.6289256 4.76625 91.3710744 2.74765179 89.346281 1.79108036 88.6644628 1.46890179 87.5429752 1.0985625 84.9082645 1.0985625L80.1892562 1.0985625 80.1892562 19.2933482 82.4297521 19.2933482 82.4297521 3.18109821 85.2652893 3.18109821C86.6553719 3.18109821 87.5512397 3.28074107 88.5909091 3.82545536 89.6330579 4.34858036 90.3884298 5.68877679 90.3884298 7.01070536 90.3884298 8.28032143 89.6727273 9.96511607 87.6504132 10.5405536 86.8884298 10.7747143 86.1173554 10.7938125 83.931405 10.7938125L83.4545455 10.7938125 89.7933884 19.2933482 92.607438 19.2933482 87.5966942 12.6446786C90.9024793 12.2311607 92.6289256 9.57650893 92.6289256 7.05969643M102.636364 8.81590179L102.503306 8.77770536C100.245455 8.12421429 98.6140496 7.65257143 98.6140496 5.71866964 98.6140496 4.33778571 99.6495868 2.86971429 101.568595 2.86971429 103.131405 2.86971429 104.452066 4.22983929 104.452066 5.83824107L104.452066 6.07738393 106.692562 6.07738393 106.692562 5.83824107C106.692562 3.00589286 104.441322.787178571 101.568595.787178571 98.6066116.787178571 96.3735537 2.93863393 96.3735537 5.79174107 96.3735537 9.3 99.1760331 10.1195625 100.850413 10.6086429L101.280992 10.7365179C102.538843 11.1110089 104.880992 11.8085089 104.880992 14.2422857 104.880992 16.2957589 103.196694 17.5230268 101.568595 17.5230268 99.5429752 17.5230268 98.2280992 16.2069107 98.1371901 14.0878393L98.1272727 13.8586607 95.892562 13.8586607 95.8966942 14.1027857C95.9669421 17.8842321 98.8859504 19.6063929 101.568595 19.6063929 104.681818 19.6063929 107.121488 17.2191161 107.121488 14.1634018 107.121488 12.9211875 106.685124 9.91280357 102.636364 8.81590179"/>
    <polygon fill="#888B8D" points="111.437 19.293 113.678 19.293 113.678 1.099 111.437 1.099"/>
    <polyline fill="#888B8D" points="117.54 3.181 121.59 3.181 121.59 19.293 123.831 19.293 123.831 3.181 127.858 3.181 127.858 1.099 117.54 1.099 117.54 3.181"/>
    <polyline fill="#888B8D" points="137.179 10.751 132.296 1.099 129.803 1.099 136.081 13.199 136.081 19.293 138.321 19.293 138.321 13.2 144.674 1.099 142.203 1.099 137.179 10.751"/>
    <path fill="#888B8D" d="M152.829752 17.763C150.46281 17.763 148.53719 15.7801071 148.53719 13.3421786 148.53719 10.5355714 150.765289 8.79763393 152.829752 8.79763393 154.561157 8.79763393 157.123967 10.2025982 157.123967 13.217625 157.123967 16.0624286 154.939669 17.763 152.829752 17.763zM152.809917 6.99077679C149.819835 6.99077679 146.592562 9.427875 146.592562 13.3654286 146.592562 16.728375 149.439669 19.5690268 152.809917 19.5690268 156.201653 19.5690268 159.066116 16.6893482 159.066116 13.2790714 159.066116 9.87045536 156.201653 6.99077679 152.809917 6.99077679zM166.275207 4.79199107L166.513223 4.79199107 166.513223 2.94195536 166.272727 2.94444643C161.980992 2.98679464 161.690083 5.7485625 161.63719 7.28555357L159.84876 7.28555357 159.84876 9.09241071 161.630579 9.09241071 161.630579 19.2933482 163.577686 19.2933482 163.577686 9.09241071 166.513223 9.09241071 166.513223 7.28555357 163.578512 7.28555357C163.582645 6.80311607 163.617355 6.20941071 163.908264 5.73527679 164.299174 5.10088393 165.072727 4.79199107 166.275207 4.79199107"/>
    <polyline fill="#C8102E" points="173.736 .929 178.362 .929 178.362 7.771 184.291 7.771 184.291 .929 188.919 .929 188.919 19.139 184.291 19.139 184.291 11.855 178.362 11.855 178.362 19.139 173.736 19.139 173.736 .929"/>
    <path fill="#C8102E" d="M202.269421 15.3989732C205.55124 15.3989732 207.143802 12.3988929 207.143802 10.0597768 207.143802 7.69741071 205.55124 4.66909821 202.222314 4.66909821 199.01405 4.66909821 197.273554 7.42588393 197.273554 9.98338393 197.273554 12.7908214 199.158678 15.3989732 202.269421 15.3989732zM202.196694.585401786C207.780165.585401786 211.771901 4.96470536 211.771901 10.0356964 211.771901 15.1033661 207.805785 19.4859911 202.171074 19.4859911 196.466942 19.4859911 192.644628 14.9298214 192.644628 10.2565714 192.644628 9.05089286 192.817355 7.69741071 193.354545 6.36883929 194.308264 4.00564286 197.126446.585401786 202.196694.585401786zM220.078512.929169643L220.078512 11.9297411C220.078512 13.1595 220.15124 15.3989732 222.430579 15.3989732 224.733884 15.3989732 224.733884 13.3812054 224.733884 11.9297411L224.733884.929169643 229.359504.929169643 229.359504 11.9297411C229.359504 14.9821339 228.700826 16.3347857 227.54876 17.5155536 226.373554 18.7220625 224.733884 19.4859911 222.47686 19.4859911 221.155372 19.4859911 218.754545 19.1646429 217.261983 17.5396339 215.768595 15.8905446 215.450413 14.6109643 215.450413 11.9297411L215.450413.929169643 220.078512.929169643M240.923967 6.24428571C240.824793 5.62899107 240.678512 4.47313393 239.257851 4.47313393 238.44876 4.47313393 237.666116 5.03860714 237.666116 5.8996875 237.666116 6.98330357 238.155372 7.20417857 241.41405 8.67972321 244.794215 10.2075804 245.649587 11.7819375 245.649587 13.8985179 245.649587 16.5556607 244.132231 19.4859911 239.330579 19.4859911 234.089256 19.4859911 232.793388 16.0400089 232.793388 13.7025536L232.793388 13.1105089 237.396694 13.1105089C237.396694 15.2270893 238.694215 15.5965982 239.281818 15.5965982 240.382645 15.5965982 241.046281 14.6856964 241.046281 13.8503571 241.046281 12.6438482 240.287603 12.3465804 237.493388 11.1658125 236.219835 10.6501607 233.059504 9.37058036 233.059504 5.94867857 233.059504 2.5284375 236.366942.585401786 239.404959.585401786 241.193388.585401786 243.127273 1.24885714 244.303306 2.65133036 245.381818 3.97990179 245.454545 5.21215179 245.503306 6.24428571L240.923967 6.24428571"/>
    <polyline fill="#C8102E" points="251.26 5.015 247.685 5.015 247.685 .929 259.441 .929 259.441 5.015 255.89 5.015 255.89 19.139 251.26 19.139 251.26 5.015"/>
    <path fill="#C8102E" d="M271.003306,15.3989732 C274.283471,15.3989732 275.876033,12.3988929 275.876033,10.0597768 C275.876033,7.69741071 274.283471,4.66909821 270.952066,4.66909821 C267.744628,4.66909821 266.004132,7.42588393 266.004132,9.98338393 C266.004132,12.7908214 267.890909,15.3989732 271.003306,15.3989732 Z M270.927273,0.585401786 C276.512397,0.585401786 280.505785,4.96470536 280.505785,10.0356964 C280.505785,15.1033661 276.536364,19.4859911 270.904959,19.4859911 C265.197521,19.4859911 261.378512,14.9298214 261.378512,10.2565714 C261.378512,9.05089286 261.549587,7.69741071 262.086777,6.36883929 C263.042149,4.00564286 265.858678,0.585401786 270.927273,0.585401786 Z"/>
    <polyline fill="#C8102E" points="284.231 .929 288.225 .929 295.229 12.371 295.277 12.322 295.082 .929 299.514 .929 299.514 19.139 295.498 19.139 288.589 8.065 288.543 8.089 288.664 19.139 284.231 19.139 284.231 .929"/>
    <polyline fill="#888B8D" points="17.188 45.46 17.188 34.83 18.765 34.83 23.959 42.874 23.884 34.83 25.402 34.83 25.402 45.46 23.93 45.46 18.617 37.178 18.721 45.46 17.188 45.46"/>
    <path fill="#888B8D" d="M31.038843,36.8338125 L29.5214876,40.8710089 L32.5264463,40.8710089 L31.038843,36.8338125 Z M27.7801653,45.4603929 L26.1578512,45.4603929 L30.2950413,34.8301607 L31.7826446,34.8301607 L35.9198347,45.4603929 L34.2380165,45.4603929 L33.077686,42.3656518 L28.9702479,42.3656518 L27.7801653,45.4603929 Z"/>
    <polyline fill="#888B8D" points="37.142 45.46 37.142 36.266 35.163 36.266 35.163 34.83 40.654 34.83 40.654 36.266 38.675 36.266 38.675 45.46 37.142 45.46"/>
    <path fill="#888B8D" d="M43.4049587 34.8301607L43.4049587 41.5884375C43.4049587 43.3371696 43.7917355 44.1600536 45.2950413 44.1600536 46.7090909 44.1600536 47.0950413 43.3371696 47.0950413 41.5884375L47.0950413 34.8301607 48.6280992 34.8301607 48.6280992 41.5726607C48.6280992 42.6795268 48.568595 43.5323036 48.107438 44.2339554 47.4669421 45.2063036 46.5595041 45.6696429 45.3247934 45.6696429 44 45.6696429 43.092562 45.2511429 42.4082645 44.2497321 41.8719008 43.4567411 41.8719008 42.6047946 41.8719008 41.5726607L41.8719008 34.8301607 43.4049587 34.8301607M53 40.3470536C55.0983471 40.3470536 56.1396694 39.6744643 56.1396694 38.2537232 56.1396694 36.8338125 55.2173554 36.2658482 53.3570248 36.2658482L52.2115702 36.2658482 52.2115702 40.3470536 53 40.3470536zM50.6785124 45.4603929L50.6785124 34.8301607 53.7297521 34.8301607C56.3033058 34.8301607 57.6429752 36.0707143 57.6429752 38.2695 57.6429752 39.9733929 56.4371901 41.2895089 54.6371901 41.3791875L57.6429752 45.4603929 55.7231405 45.4603929 52.2115702 40.5272411 52.2115702 45.4603929 50.6785124 45.4603929zM62.877686 36.8338125L61.3603306 40.8710089 64.3661157 40.8710089 62.877686 36.8338125zM59.6190083 45.4603929L57.9975207 45.4603929 62.1338843 34.8301607 63.622314 34.8301607 67.7586777 45.4603929 66.077686 45.4603929 64.9165289 42.3656518 60.8099174 42.3656518 59.6190083 45.4603929z"/>
    <polyline fill="#888B8D" points="68.634 45.46 68.634 34.83 70.166 34.83 70.166 43.995 73.634 43.995 73.634 45.46 68.634 45.46"/>
    <path fill="#888B8D" d="M80.5347107 42.3955446C80.5793388 43.5165268 81.2487603 44.2040625 82.1859504 44.2040625 83.2429752 44.2040625 83.9272727 43.5024107 83.9272727 42.3955446 83.9272727 41.2147768 83.2876033 40.9009018 82.1264463 40.5413571 81.3677686 40.3321071 80.653719 40.2125357 79.9991736 39.31575 79.6421488 38.8366339 79.4628099 38.2985625 79.4628099 37.6865893 79.4628099 35.8614643 80.638843 34.6358571 82.3801653 34.6358571 83.9867769 34.6358571 85.0578512 35.6829375 85.1628099 37.4615625L83.7338843 37.4615625C83.6892562 36.6096161 83.1090909 36.0408214 82.3347107 36.0408214 81.4719008 36.0408214 80.9066116 36.6992946 80.9066116 37.5960804 80.9066116 37.9249018 81.0107438 38.2097143 81.2041322 38.4488571 81.6504132 38.9719821 82.4099174 39.001875 83.2727273 39.3008036 84.6570248 39.8239286 85.4008264 40.8402857 85.4008264 42.2460804 85.4008264 44.2787946 84.1504132 45.6696429 82.2157025 45.6696429 80.4305785 45.6696429 79.1809917 44.38425 79.1504132 42.3955446L80.5347107 42.3955446M91.9752066 45.6696429C90.3975207 45.6696429 89.0438017 45.0568393 87.9727273 43.8461786 87.0793388 42.8439375 86.6033058 41.5427679 86.6033058 40.0788482 86.6033058 38.5974911 87.1694215 37.2523125 88.2553719 36.1612232 89.2669421 35.1598125 90.531405 34.6209107 91.9900826 34.6209107 94.1628099 34.6209107 95.8735537 35.6970536 96.707438 37.5811339L94.9066116 37.5811339C94.222314 36.6395089 93.2256198 36.1612232 91.9752066 36.1612232 90.9785124 36.1612232 90.0553719 36.5498304 89.3561983 37.2672589 88.6123967 38.0303571 88.1958678 39.0757768 88.1958678 40.0929643 88.1958678 41.2147768 88.5826446 42.2303036 89.2669421 42.9493929 89.9958678 43.7116607 90.9933884 44.1442768 91.9752066 44.1442768 93.1958678 44.1442768 94.192562 43.6659911 94.8173554 42.7990982L96.707438 42.7990982C95.7842975 44.6524554 94.1181818 45.6696429 91.9752066 45.6696429"/>
    <polygon fill="#888B8D" points="98.564 45.46 100.097 45.46 100.097 34.83 98.564 34.83"/>
    <polyline fill="#888B8D" points="102.238 45.46 102.238 34.83 107.729 34.83 107.729 36.251 103.77 36.251 103.77 39.42 107.729 39.42 107.729 40.81 103.77 40.81 103.77 43.995 107.729 43.995 107.729 45.46 102.238 45.46"/>
    <polyline fill="#888B8D" points="109.899 45.46 109.899 34.83 111.477 34.83 116.669 42.874 116.596 34.83 118.113 34.83 118.113 45.46 116.64 45.46 111.328 37.178 111.432 45.46 109.899 45.46"/>
    <path fill="#888B8D" d="M125.14876,45.6696429 C123.571074,45.6696429 122.217355,45.0568393 121.145455,43.8461786 C120.252893,42.8439375 119.77686,41.5427679 119.77686,40.0788482 C119.77686,38.5974911 120.342149,37.2523125 121.428099,36.1612232 C122.440496,35.1598125 123.704959,34.6209107 125.163636,34.6209107 C127.336364,34.6209107 129.047107,35.6970536 129.880165,37.5811339 L128.080165,37.5811339 C127.395041,36.6395089 126.398347,36.1612232 125.14876,36.1612232 C124.152066,36.1612232 123.228926,36.5498304 122.529752,37.2672589 C121.785124,38.0303571 121.368595,39.0757768 121.368595,40.0929643 C121.368595,41.2147768 121.756198,42.2303036 122.440496,42.9493929 C123.169421,43.7116607 124.166116,44.1442768 125.14876,44.1442768 C126.368595,44.1442768 127.365289,43.6659911 127.990909,42.7990982 L129.880165,42.7990982 C128.957851,44.6524554 127.290909,45.6696429 125.14876,45.6696429"/>
    <polyline fill="#888B8D" points="131.737 45.46 131.737 34.83 137.228 34.83 137.228 36.251 133.269 36.251 133.269 39.42 137.228 39.42 137.228 40.81 133.269 40.81 133.269 43.995 137.228 43.995 137.228 45.46 131.737 45.46"/>
    <path fill="#888B8D" d="M140.216529 42.3955446C140.261157 43.5165268 140.930579 44.2040625 141.868595 44.2040625 142.924793 44.2040625 143.609917 43.5024107 143.609917 42.3955446 143.609917 41.2147768 142.969421 40.9009018 141.809091 40.5413571 141.049587 40.3321071 140.335537 40.2125357 139.680992 39.31575 139.323967 38.8366339 139.145455 38.2985625 139.145455 37.6865893 139.145455 35.8614643 140.320661 34.6358571 142.061983 34.6358571 143.668595 34.6358571 144.740496 35.6829375 144.844628 37.4615625L143.415702 37.4615625C143.371074 36.6096161 142.790909 36.0408214 142.017355 36.0408214 141.154545 36.0408214 140.58843 36.6992946 140.58843 37.5960804 140.58843 37.9249018 140.692562 38.2097143 140.886777 38.4488571 141.333058 38.9719821 142.091736 39.001875 142.954545 39.3008036 144.338843 39.8239286 145.082645 40.8402857 145.082645 42.2460804 145.082645 44.2787946 143.833058 45.6696429 141.898347 45.6696429 140.112397 45.6696429 138.86281 44.38425 138.833058 42.3955446L140.216529 42.3955446M154.810744 36.8338125L153.293388 40.8710089 156.299174 40.8710089 154.810744 36.8338125zM151.552066 45.4603929L149.930579 45.4603929 154.066942 34.8301607 155.555372 34.8301607 159.692562 45.4603929 158.009917 45.4603929 156.849587 42.3656518 152.742149 42.3656518 151.552066 45.4603929z"/>
    <polyline fill="#888B8D" points="160.567 45.46 160.567 34.83 162.144 34.83 167.338 42.874 167.264 34.83 168.781 34.83 168.781 45.46 167.307 45.46 161.996 37.178 162.1 45.46 160.567 45.46"/>
    <path fill="#888B8D" d="M174.194215,44.0396518 C176.575207,44.0396518 178.018182,42.5450089 178.018182,40.1975893 C178.018182,37.7912143 176.530579,36.2799643 173.91157,36.2799643 L172.333884,36.2799643 L172.333884,44.0396518 L174.194215,44.0396518 Z M170.846281,45.4603929 L170.846281,34.8301607 L174.253719,34.8301607 C177.467769,34.8301607 179.566116,37.0281161 179.566116,40.1826429 C179.566116,42.0069375 178.806612,43.5323036 177.438017,44.5179375 C176.307438,45.3408214 175.221488,45.4603929 173.822314,45.4603929 L170.846281,45.4603929 Z"/>
    <polyline fill="#888B8D" points="185.826 45.46 185.826 34.83 188.102 34.83 191.168 43.054 194.233 34.83 196.48 34.83 196.48 45.46 195.037 45.46 195.141 36.236 191.704 45.46 190.617 45.46 187.195 36.236 187.299 45.46 185.826 45.46"/>
    <path fill="#888B8D" d="M202.146281,36.8338125 L200.628926,40.8710089 L203.633884,40.8710089 L202.146281,36.8338125 Z M198.886777,45.4603929 L197.265289,45.4603929 L201.401653,34.8301607 L202.890083,34.8301607 L207.027273,45.4603929 L205.345455,45.4603929 L204.184298,42.3656518 L200.077686,42.3656518 L198.886777,45.4603929 Z"/>
    <polyline fill="#888B8D" points="208.249 45.46 208.249 36.266 206.27 36.266 206.27 34.83 211.761 34.83 211.761 36.266 209.782 36.266 209.782 45.46 208.249 45.46"/>
    <polyline fill="#888B8D" points="213.083 45.46 213.083 34.83 214.617 34.83 214.617 39.346 218.931 39.346 218.931 34.83 220.464 34.83 220.464 45.46 218.931 45.46 218.931 40.855 214.617 40.855 214.617 45.46 213.083 45.46"/>
    <polyline fill="#888B8D" points="222.604 45.46 222.604 34.83 228.095 34.83 228.095 36.251 224.136 36.251 224.136 39.42 228.095 39.42 228.095 40.81 224.136 40.81 224.136 43.995 228.095 43.995 228.095 45.46 222.604 45.46"/>
    <polyline fill="#888B8D" points="230.265 45.46 230.265 34.83 232.542 34.83 235.607 43.054 238.673 34.83 240.92 34.83 240.92 45.46 239.477 45.46 239.581 36.236 236.143 45.46 235.057 45.46 231.634 36.236 231.738 45.46 230.265 45.46"/>
    <path fill="#888B8D" d="M246.585124,36.8338125 L245.066942,40.8710089 L248.072727,40.8710089 L246.585124,36.8338125 Z M243.326446,45.4603929 L241.704132,45.4603929 L245.841322,34.8301607 L247.329752,34.8301607 L251.465289,45.4603929 L249.784298,45.4603929 L248.623967,42.3656518 L244.516529,42.3656518 L243.326446,45.4603929 Z"/>
    <polyline fill="#888B8D" points="252.688 45.46 252.688 36.266 250.709 36.266 250.709 34.83 256.2 34.83 256.2 36.266 254.221 36.266 254.221 45.46 252.688 45.46"/>
    <polygon fill="#888B8D" points="257.523 45.46 259.055 45.46 259.055 34.83 257.523 34.83"/>
    <path fill="#888B8D" d="M266.092562 45.6696429C264.514876 45.6696429 263.161157 45.0568393 262.090083 43.8461786 261.196694 42.8439375 260.720661 41.5427679 260.720661 40.0788482 260.720661 38.5974911 261.28595 37.2523125 262.372727 36.1612232 263.384298 35.1598125 264.649587 34.6209107 266.107438 34.6209107 268.280165 34.6209107 269.990909 35.6970536 270.823967 37.5811339L269.023967 37.5811339C268.338843 36.6395089 267.342149 36.1612232 266.092562 36.1612232 265.095868 36.1612232 264.172727 36.5498304 263.473554 37.2672589 262.728926 38.0303571 262.312397 39.0757768 262.312397 40.0929643 262.312397 41.2147768 262.7 42.2303036 263.384298 42.9493929 264.113223 43.7116607 265.109917 44.1442768 266.092562 44.1442768 267.312397 44.1442768 268.309091 43.6659911 268.934711 42.7990982L270.823967 42.7990982C269.901653 44.6524554 268.234711 45.6696429 266.092562 45.6696429M273.5 42.3955446C273.543802 43.5165268 274.21405 44.2040625 275.15124 44.2040625 276.208264 44.2040625 276.892562 43.5024107 276.892562 42.3955446 276.892562 41.2147768 276.252893 40.9009018 275.091736 40.5413571 274.332231 40.3321071 273.618182 40.2125357 272.963636 39.31575 272.606612 38.8366339 272.428099 38.2985625 272.428099 37.6865893 272.428099 35.8614643 273.604132 34.6358571 275.344628 34.6358571 276.95124 34.6358571 278.02314 35.6829375 278.127273 37.4615625L276.699174 37.4615625C276.654545 36.6096161 276.07438 36.0408214 275.3 36.0408214 274.436364 36.0408214 273.871901 36.6992946 273.871901 37.5960804 273.871901 37.9249018 273.976033 38.2097143 274.169421 38.4488571 274.615702 38.9719821 275.37438 39.001875 276.23719 39.3008036 277.621488 39.8239286 278.365289 40.8402857 278.365289 42.2460804 278.365289 44.2787946 277.115702 45.6696429 275.180992 45.6696429 273.395868 45.6696429 272.145455 44.38425 272.115702 42.3955446L273.5 42.3955446"/>
  </g>
</svg>
