<svg id="Layer_1" data-name="Layer 1" xmlns="http://www.w3.org/2000/svg" viewBox="0 0 373.27 27"><defs><style>.cls-1,.cls-3{fill:#666;}.cls-2,.cls-4{fill:#e31837;}.cls-2,.cls-3{stroke:#666;}.cls-2{stroke-width:0.8px;}.cls-3{stroke-width:0.5px;}</style></defs><title>nsm-college-of-natural-science-and-mathematics-tertiary</title><path class="cls-1" d="M430.91,408V388.92h3.49l6,12.38h.06V388.92h2.9V408h-2.85l-6.68-13.41h-.05V408Z" transform="translate(-102.47 -383.62)"/><path class="cls-1" d="M449,402.09c.18,1.77.76,3.36,2.79,3.36a2.58,2.58,0,0,0,2.64-2.7c0-4.48-8.13-1.58-8.13-9a5.1,5.1,0,0,1,5.44-5.17c3.51,0,5.23,2.37,5.44,5.64h-3c-.18-1.45-.95-2.74-2.53-2.74a2.21,2.21,0,0,0-2.24,2.45c0,4,8.13,1.3,8.13,8.58a5.44,5.44,0,0,1-5.78,5.81c-3.73,0-5.76-2.69-5.79-6.26Z" transform="translate(-102.47 -383.62)"/><path class="cls-1" d="M460.16,388.92h4.6l3.14,13.89H468l3.2-13.89h4.59V408h-3.06V392.67h-.06L469,408h-2.06l-3.64-15.36h0V408h-3.07Z" transform="translate(-102.47 -383.62)"/><line class="cls-2" x1="321.4" y1="27" x2="321.4"/><path class="cls-3" d="M104.57,389.09v11.53a7.5,7.5,0,0,0,.62,3.35,4.36,4.36,0,0,0,7.65,0,7.36,7.36,0,0,0,.63-3.35V389.09h1.85v11.53a9.39,9.39,0,0,1-.7,3.85,6.27,6.27,0,0,1-11.2,0,9.39,9.39,0,0,1-.7-3.85V389.09Z" transform="translate(-102.47 -383.62)"/><path class="cls-3" d="M121.59,389.09h2.5l10.33,15.35h.05V389.09h1.85v18.5h-1.85l-11-16.27h0v16.27h-1.85Z" transform="translate(-102.47 -383.62)"/><path class="cls-3" d="M142.62,389.09h1.85v18.5h-1.85Z" transform="translate(-102.47 -383.62)"/><path class="cls-3" d="M149.07,389.09h2.05l6.52,16.2,6.55-16.2h2l-7.67,18.5h-1.83Z" transform="translate(-102.47 -383.62)"/><path class="cls-3" d="M170.67,389.09h10.12v1.68h-8.27v6.65h8v1.67h-8v6.83h8.27v1.67H170.67Z" transform="translate(-102.47 -383.62)"/><path class="cls-3" d="M186.57,389.09h4.7a10.45,10.45,0,0,1,4.55.7,5.75,5.75,0,0,1,3.3,5.28,5.61,5.61,0,0,1-5.5,5.62l5.22,6.9h-2.32l-6.28-8.37a13.8,13.8,0,0,0,4-.28,4.08,4.08,0,0,0,1-7.47,6.94,6.94,0,0,0-3.6-.7h-3.22v16.82h-1.85Z" transform="translate(-102.47 -383.62)"/><path class="cls-3" d="M204.89,402.42a3.79,3.79,0,0,0,7.58.15c0-2.85-2.88-3.58-4.13-3.95-1.67-.5-4.8-1.2-4.8-4.88a5.17,5.17,0,0,1,10.33.05H212a3.34,3.34,0,0,0-3.28-3.35,3.23,3.23,0,0,0-3.35,3.23c0,2.25,2,2.77,4.4,3.47,4.55,1.23,4.53,4.8,4.53,5.35a5.47,5.47,0,0,1-5.58,5.43,5.42,5.42,0,0,1-5.7-5.5Z" transform="translate(-102.47 -383.62)"/><path class="cls-3" d="M219.34,389.09h1.85v18.5h-1.85Z" transform="translate(-102.47 -383.62)"/><path class="cls-3" d="M230,390.77h-4.25v-1.68h10.33v1.68h-4.23v16.82H230Z" transform="translate(-102.47 -383.62)"/><path class="cls-3" d="M245.19,401.42l-6.42-12.33h2l5.27,10.38,5.43-10.38h2L247,401.42v6.17h-1.85Z" transform="translate(-102.47 -383.62)"/><path class="cls-3" d="M262.49,395.25a6.32,6.32,0,1,1-6.27,6.4A6.38,6.38,0,0,1,262.49,395.25Zm0,11.24a4.93,4.93,0,0,0,0-9.86,4.93,4.93,0,0,0,0,9.86Z" transform="translate(-102.47 -383.62)"/><path class="cls-3" d="M272,396.94h-1.87v-1.39H272c.05-1.67.18-4.49,4.62-4.53v1.43c-3.12,0-3.08,2-3.08,3.1h3.08v1.39h-3.08v10.65H272Z" transform="translate(-102.47 -383.62)"/><path class="cls-4" d="M284.44,388.67h4.85v7.14h6.22v-7.14h4.85v19h-4.85v-7.61h-6.22v7.61h-4.85Z" transform="translate(-102.47 -383.62)"/><path class="cls-4" d="M314.29,388.31a9.87,9.87,0,1,1-10,10.09,10.67,10.67,0,0,1,.75-4.06A9.87,9.87,0,0,1,314.29,388.31Zm.08,15.46c3.44,0,5.11-3.13,5.11-5.57s-1.67-5.63-5.16-5.63a5.29,5.29,0,0,0-5.19,5.55C309.13,401.05,311.1,403.77,314.37,403.77Z" transform="translate(-102.47 -383.62)"/><path class="cls-4" d="M333,388.67v11.48c0,1.28.08,3.62,2.47,3.62s2.42-2.1,2.42-3.62V388.67h4.85v11.48c0,3.19-.69,4.6-1.9,5.83a7.09,7.09,0,0,1-5.32,2.06,7.69,7.69,0,0,1-5.47-2c-1.57-1.72-1.9-3.06-1.9-5.86V388.67Z" transform="translate(-102.47 -383.62)"/><path class="cls-4" d="M354.91,394.22c-.1-.65-.26-1.85-1.75-1.85a1.58,1.58,0,0,0-1.67,1.49c0,1.13.52,1.36,3.93,2.9s4.45,3.24,4.45,5.45c0,2.77-1.6,5.83-6.63,5.83-5.5,0-6.86-3.6-6.86-6v-.62h4.83c0,2.21,1.36,2.6,2,2.6a1.84,1.84,0,0,0,1.85-1.82c0-1.26-.8-1.57-3.73-2.81-1.33-.54-4.65-1.87-4.65-5.44s3.47-5.6,6.66-5.6a6.74,6.74,0,0,1,5.13,2.16,5.72,5.72,0,0,1,1.26,3.75Z" transform="translate(-102.47 -383.62)"/><path class="cls-4" d="M365.75,392.93H362v-4.26h12.33v4.26h-3.72v14.75h-4.86Z" transform="translate(-102.47 -383.62)"/><path class="cls-4" d="M386.38,388.31a9.87,9.87,0,1,1-10,10.09,10.67,10.67,0,0,1,.75-4.06A9.87,9.87,0,0,1,386.38,388.31Zm.08,15.46c3.44,0,5.11-3.13,5.11-5.57s-1.67-5.63-5.16-5.63a5.29,5.29,0,0,0-5.19,5.55C381.22,401.05,383.2,403.77,386.46,403.77Z" transform="translate(-102.47 -383.62)"/><path class="cls-4" d="M400.33,388.67h4.19l7.35,11.94.05-.05-.21-11.89h4.65v19h-4.21l-7.24-11.56-.06,0,.13,11.54h-4.65Z" transform="translate(-102.47 -383.62)"/></svg>